<svg width="251" height="72" viewBox="0 0 251 72" fill="none" xmlns="http://www.w3.org/2000/svg">
<path d="M0.703756 0.0851988L13.1166 0L13.4083 42.1273C13.4212 43.8335 13.7387 45.0492 14.3633 45.7668C14.988 46.4869 15.8965 46.8432 17.0865 46.8354C17.8092 46.8303 18.5706 46.7219 19.3734 46.5103C20.1735 46.2986 20.8833 45.9836 21.5002 45.5629L23.1935 54.9378C21.6474 55.6218 19.8664 56.2025 17.8531 56.6826C15.8397 57.1601 13.9529 57.4079 12.1951 57.4182C8.62537 57.444 5.879 56.52 3.95087 54.6435C2.02531 52.7695 1.04963 50.0748 1.02382 46.5566L0.701172 0.0826782L0.703756 0.0851988Z" fill="#29235C"/>
<path d="M44.7793 57.1954C41.3128 57.2187 38.2309 56.6921 35.5362 55.6106C32.8388 54.529 30.539 53.05 28.6393 51.1709C26.737 49.2918 25.2863 47.1159 24.2874 44.6406C23.2859 42.1678 22.7774 39.5763 22.7594 36.8635C22.7336 32.9892 23.575 29.453 25.2863 26.2549C26.9976 23.0568 29.4756 20.4782 32.7201 18.5191C35.9646 16.56 39.888 15.5637 44.4928 15.5302C49.0951 15.4966 53.0339 16.4283 56.3069 18.3203C59.5798 20.2123 62.0654 22.7367 63.769 25.8909C65.47 29.0451 66.3347 32.4368 66.3605 36.0633C66.3657 36.7783 66.3321 37.483 66.2599 38.1721C66.1876 38.8613 66.1256 39.4627 66.0792 39.9738L35.9775 40.1829C36.0937 41.9432 36.5944 43.4223 37.4824 44.6226C38.3703 45.8254 39.4879 46.721 40.8379 47.3146C42.1853 47.9083 43.5843 48.2 45.0323 48.1897C46.9449 48.1768 48.7156 47.7251 50.3392 46.8346C51.9627 45.9441 53.052 44.7722 53.6121 43.319L64.1846 46.2718C63.165 48.4013 61.7299 50.2598 59.8792 51.8498C58.0285 53.4424 55.8268 54.7226 53.2714 55.6983C50.7186 56.6714 47.8897 57.1721 44.7845 57.1928L44.7793 57.1954ZM35.6859 32.5839L53.2972 32.4626C53.1294 30.8184 52.6287 29.391 51.7924 28.1753C50.9561 26.9595 49.9159 26.02 48.6692 25.3566C47.4225 24.6933 45.9718 24.3655 44.3173 24.3759C42.8177 24.3862 41.4238 24.732 40.1358 25.416C38.8478 26.0974 37.8205 27.0396 37.0513 28.2398C36.2847 29.44 35.8278 30.8881 35.6859 32.5839Z" fill="#29235C"/>
<path d="M89.7002 56.8829C86.2337 56.9062 83.1518 56.3796 80.4571 55.2981C77.7597 54.2165 75.4599 52.7375 73.5602 50.8584C71.6578 48.9793 70.2072 46.8034 69.2083 44.3281C68.2068 41.8553 67.6983 39.2638 67.6803 36.551C67.6545 32.6767 68.4959 29.1405 70.2072 25.9424C71.9185 22.7443 74.3965 20.1657 77.641 18.2066C80.8855 16.2475 84.8089 15.2511 89.4137 15.2175C94.0159 15.1866 97.9548 16.1158 101.228 18.0078C104.501 19.8998 106.986 22.4269 108.69 25.5811C110.391 28.7352 111.256 32.1268 111.281 35.7534C111.287 36.4684 111.253 37.1705 111.181 37.8623C111.108 38.554 111.047 39.1529 111 39.6639L80.8984 39.8729C81.0146 41.6333 81.5153 43.1123 82.4033 44.3126C83.2912 45.5154 84.4088 46.4111 85.7588 47.0048C87.1062 47.5985 88.5051 47.89 89.9532 47.8797C91.8658 47.8668 93.6365 47.4151 95.2601 46.5246C96.8836 45.6341 97.9729 44.4623 98.533 43.0117L109.105 45.9645C108.086 48.094 106.651 49.9499 104.8 51.5425C102.949 53.1351 100.748 54.4153 98.1923 55.3909C95.6395 56.3666 92.8105 56.8648 89.708 56.8855L89.7002 56.8829ZM80.6068 32.274L98.2181 32.1527C98.0503 30.5111 97.5496 29.081 96.7133 27.8653C95.877 26.6496 94.8368 25.71 93.5901 25.0467C92.3434 24.3833 90.8927 24.0555 89.2382 24.0684C87.7385 24.0787 86.3421 24.4246 85.0567 25.106C83.7687 25.7875 82.7414 26.7296 81.9722 27.9298C81.2056 29.1301 80.7487 30.5781 80.6068 32.274Z" fill="#29235C"/>
<path d="M154.477 55.6572L142.064 55.7423L141.909 33.2604C141.891 30.6199 141.346 28.7072 140.278 27.5198C139.209 26.3325 137.872 25.7439 136.269 25.7569C135.131 25.7646 133.969 26.0718 132.784 26.6809C131.597 27.2901 130.518 28.1239 129.542 29.1796C128.567 30.2378 127.852 31.4432 127.395 32.7957L127.555 55.843L115.142 55.9282L114.863 15.6619L126.035 15.5845L126.081 22.4685C127.103 20.8295 128.389 19.4433 129.932 18.3076C131.476 17.1745 133.254 16.3176 135.267 15.742C137.281 15.1664 139.452 14.8695 141.78 14.854C144.469 14.836 146.632 15.2799 148.266 16.1885C149.903 17.0971 151.152 18.2998 152.014 19.7995C152.879 21.2991 153.472 22.9409 153.795 24.727C154.118 26.5106 154.285 28.2477 154.296 29.9306L154.474 55.6572H154.477Z" fill="#29235C"/>
<path d="M233.231 55.8873C230.129 55.9079 227.434 55.2885 225.15 54.0289C222.865 52.7667 221.069 50.9935 219.76 48.704L219.92 71.7306L207.507 71.8157L207.112 15.0247L217.896 14.95L217.943 21.5293C219.427 19.2734 221.301 17.4976 223.57 16.2044C225.836 14.9138 228.495 14.2556 231.548 14.235C234.289 14.2143 236.814 14.7099 239.124 15.714C241.432 16.7181 243.447 18.1738 245.167 20.0735C246.886 21.9758 248.233 24.175 249.209 26.671C250.182 29.167 250.68 31.8695 250.701 34.7785C250.729 38.7613 249.988 42.3388 248.486 45.5162C246.981 48.6936 244.903 51.2103 242.252 53.0661C239.602 54.922 236.594 55.8615 233.234 55.8848L233.231 55.8873ZM228.89 45.4439C230.234 45.4335 231.46 45.1367 232.57 44.5508C233.678 43.9623 234.643 43.1751 235.464 42.1865C236.285 41.1979 236.909 40.0725 237.34 38.8077C237.771 37.5455 237.983 36.2059 237.973 34.794C237.962 33.3331 237.707 31.9986 237.209 30.7932C236.708 29.5878 236.016 28.5217 235.131 27.5951C234.246 26.6684 233.205 25.9457 232.013 25.4243C230.818 24.9029 229.525 24.6474 228.128 24.6577C227.3 24.6629 226.461 24.8075 225.609 25.0863C224.757 25.365 223.957 25.7315 223.211 26.1858C222.465 26.6401 221.784 27.2053 221.167 27.8816C220.552 28.5604 220.039 29.3245 219.631 30.1711L219.688 38.5186C220.266 39.7678 221.025 40.9268 221.962 41.998C222.901 43.0692 223.965 43.9132 225.16 44.5301C226.352 45.147 227.596 45.4516 228.89 45.4439Z" fill="#29235C"/>
<path d="M171.087 18.4735C167.491 17.2217 163.64 16.992 159.962 18.0322C157.365 18.7678 155.494 21.7154 156.356 24.3818C157.213 27.0275 159.923 28.775 162.706 27.9877C162.987 27.9077 163.271 27.8406 163.552 27.7658C164.125 27.6083 163.867 27.598 163.46 27.7348C164.002 27.5515 164.856 27.6547 165.408 27.6831C165.527 27.6908 166.451 27.8071 165.826 27.7064C165.191 27.6032 166.154 27.7916 166.263 27.8148C166.97 27.9748 167.659 28.189 168.343 28.4291C170.896 29.3196 174.102 27.4173 174.693 24.8232C175.348 21.9427 173.82 19.426 171.087 18.4735Z" fill="#29235C"/>
<path d="M203.597 35.7227C201.072 32.7828 197.892 30.5242 194.155 29.4272C191.563 28.6683 188.417 30.346 187.805 33.033C187.175 35.8 188.636 38.5697 191.411 39.3827C191.711 39.4705 192.005 39.5867 192.304 39.6693C192.888 39.8294 191.452 39.1918 192.281 39.6642C192.844 39.9842 193.396 40.2888 193.936 40.645C194.418 40.965 194.137 40.836 193.848 40.5649C194.101 40.8024 194.374 41.0167 194.627 41.2516C195.221 41.8065 195.768 42.4053 196.297 43.0222C198.063 45.0794 201.811 44.971 203.597 43.0222C205.608 40.8308 205.478 37.9167 203.597 35.7227Z" fill="#29235C"/>
<path d="M160.623 23.8341C158.795 28.4286 158.54 33.8207 159.033 38.7017C159.564 43.975 160.917 48.6779 164.267 52.8827C167.576 57.0332 172.496 59.3356 177.743 59.6686C183.236 60.017 188.05 57.7248 191.979 54.0105C196.555 49.6819 199.97 43.6704 201.4 37.5427C202.012 34.9176 200.587 31.828 197.794 31.193C195.156 30.5916 192.1 31.9855 191.444 34.7989C191.199 35.8469 190.902 36.8767 190.536 37.8885C190.443 38.1441 190.332 38.397 190.244 38.6526C190.585 37.6536 190.391 38.3248 190.285 38.5571C189.996 39.1844 189.699 39.8038 189.377 40.413C188.894 41.3216 188.362 42.2069 187.792 43.0639C187.49 43.5156 187.17 43.9491 186.852 44.3905C186.419 44.9945 187.41 43.7452 186.92 44.2924C186.7 44.5377 186.499 44.8009 186.282 45.0461C185.611 45.8101 184.896 46.5407 184.132 47.2144C183.949 47.377 183.76 47.5318 183.574 47.6918C182.857 48.3139 183.66 47.5654 183.773 47.5447C183.35 47.6248 182.73 48.2623 182.341 48.4895C182.165 48.5902 181.249 48.9231 181.184 49.0909C181.218 49.0032 182.392 48.6702 181.551 48.9257C181.357 48.9851 181.169 49.0573 180.975 49.1141C180.792 49.1683 179.932 49.2379 179.832 49.3696C179.857 49.336 180.851 49.2767 180.27 49.2999C179.966 49.3128 179.659 49.3515 179.354 49.3644C178.879 49.3825 178.402 49.3825 177.927 49.3567C177.986 49.3593 177.232 49.3102 177.232 49.3051C177.245 49.2044 178.391 49.5219 177.589 49.3516C177.15 49.2586 176.714 49.1786 176.28 49.0573C176.068 48.9979 175.857 48.9334 175.648 48.8637C175.49 48.8121 175.335 48.7579 175.183 48.6986C174.816 48.5592 174.976 48.6262 175.66 48.9075C175.65 48.8301 173.312 47.6996 173.405 47.5938C173.441 47.5551 174.385 48.443 173.67 47.79C173.508 47.6403 173.335 47.4983 173.172 47.3486C172.801 47.0028 172.462 46.6284 172.119 46.2542C171.278 45.3301 172.586 46.9718 171.866 45.9238C171.629 45.5805 171.404 45.2269 171.195 44.8655C170.947 44.4396 170.715 44.0033 170.501 43.5619C170.418 43.3916 170.312 43.0354 170.186 42.8728C170.829 43.6936 170.57 43.8589 170.359 43.2033C170.124 42.4779 169.92 41.75 169.755 41.0041C169.662 40.5859 169.582 40.1652 169.507 39.7419C169.468 39.5199 169.437 39.2979 169.399 39.0785C169.239 38.1183 169.484 39.92 169.422 39.2411C169.213 36.9284 169.094 34.6363 169.262 32.3158C169.28 32.0629 169.3 31.8073 169.326 31.5543C169.342 31.384 169.473 30.2844 169.365 31.113C169.264 31.8744 169.378 31.0614 169.411 30.873C169.463 30.5684 169.517 30.2664 169.582 29.9644C169.822 28.8106 170.152 27.6826 170.586 26.5882C171.587 24.0716 169.494 20.8115 166.98 20.2385C164.001 19.5597 161.702 21.1497 160.63 23.8445L160.623 23.8341Z" fill="#29235C"/>
</svg>
