<svg width="251" height="107" viewBox="0 0 251 107" fill="none" xmlns="http://www.w3.org/2000/svg">
<path d="M0.703756 0.0851988L13.1166 0L13.4083 42.1273C13.4212 43.8334 13.7387 45.0492 14.3633 45.7668C14.988 46.4869 15.8965 46.8431 17.0864 46.8354C17.8092 46.8302 18.5706 46.7218 19.3734 46.5101C20.1735 46.2984 20.8833 45.9836 21.5002 45.5628L23.1935 54.9376C21.6474 55.6216 19.8664 56.2024 17.853 56.6825C15.8397 57.1601 13.9529 57.4079 12.1951 57.4182C8.62537 57.444 5.879 56.5199 3.95087 54.6434C2.02531 52.7695 1.04963 50.0747 1.02382 46.5566L0.701172 0.0825521L0.703756 0.0851988Z" fill="#29235C"/>
<path d="M44.7793 57.1954C41.3128 57.2186 38.2309 56.6922 35.5362 55.6107C32.8388 54.5292 30.539 53.0501 28.6393 51.171C26.737 49.2919 25.2863 47.116 24.2874 44.6407C23.2859 42.1679 22.7774 39.5763 22.7594 36.8635C22.7336 32.9892 23.575 29.4531 25.2863 26.255C26.9976 23.0569 29.4756 20.4783 32.7201 18.5192C35.9646 16.5601 39.888 15.5637 44.4928 15.5302C49.0951 15.4966 53.0339 16.4284 56.3069 18.3204C59.5798 20.2124 62.0654 22.7368 63.769 25.891C65.47 29.0452 66.3347 32.4369 66.3605 36.0635C66.3657 36.7784 66.3321 37.4831 66.2598 38.1723C66.1876 38.8614 66.1256 39.4628 66.0792 39.9739L35.9775 40.183C36.0937 41.9434 36.5944 43.4223 37.4824 44.6225C38.3703 45.8254 39.4879 46.7211 40.8379 47.3147C42.1853 47.9084 43.5842 48.2001 45.0323 48.1898C46.9449 48.1769 48.7156 47.7252 50.3392 46.8347C51.9627 45.9442 53.052 44.7723 53.6121 43.3191L64.1846 46.2719C63.165 48.4014 61.7299 50.2598 59.8792 51.8498C58.0285 53.4424 55.8268 54.7227 53.2714 55.6984C50.7186 56.6715 47.8896 57.1722 44.7845 57.1929L44.7793 57.1954ZM35.6859 32.584L53.2972 32.4627C53.1294 30.8185 52.6287 29.3911 51.7924 28.1754C50.9561 26.9597 49.9159 26.0201 48.6692 25.3568C47.4225 24.6934 45.9718 24.3655 44.3173 24.3758C42.8176 24.3862 41.4238 24.7321 40.1358 25.4161C38.8478 26.0976 37.8205 27.0397 37.0513 28.2399C36.2847 29.4402 35.8278 30.8882 35.6859 32.584Z" fill="#29235C"/>
<path d="M89.7002 56.8847C86.2337 56.908 83.1518 56.3815 80.4571 55.3C77.7597 54.2185 75.4599 52.7394 73.5602 50.8603C71.6578 48.9812 70.2072 46.8054 69.2083 44.33C68.2068 41.8573 67.6983 39.2657 67.6803 36.5529C67.6545 32.6785 68.4959 29.1424 70.2072 25.9443C71.9185 22.7463 74.3965 20.1676 77.641 18.2085C80.8855 16.2494 84.8089 15.2531 89.4137 15.2195C94.0159 15.1885 97.9548 16.1178 101.228 18.0098C104.501 19.9018 106.986 22.4287 108.69 25.5829C110.391 28.7371 111.256 32.1288 111.281 35.7553C111.287 36.4703 111.253 37.1724 111.181 37.8641C111.108 38.5559 111.047 39.1547 111 39.6658L80.8984 39.8748C81.0146 41.6352 81.5153 43.1143 82.4033 44.3145C83.2912 45.5173 84.4088 46.4129 85.7588 47.0066C87.1061 47.6003 88.5051 47.892 89.9532 47.8816C91.8658 47.8687 93.6365 47.417 95.2601 46.5265C96.8836 45.636 97.9729 44.4642 98.533 43.0136L109.105 45.9664C108.086 48.0959 106.651 49.9517 104.8 51.5443C102.949 53.1369 100.748 54.4172 98.1923 55.3929C95.6395 56.3686 92.8105 56.8667 89.708 56.8874L89.7002 56.8847ZM80.6068 32.2759L98.2181 32.1545C98.0503 30.5129 97.5496 29.083 96.7133 27.8672C95.877 26.6515 94.8368 25.712 93.5901 25.0486C92.3434 24.3853 90.8927 24.0574 89.2382 24.0703C87.7385 24.0807 86.3421 24.4266 85.0567 25.108C83.7687 25.7894 82.7414 26.7315 81.9722 27.9318C81.2056 29.132 80.7487 30.5801 80.6068 32.2759Z" fill="#29235C"/>
<path d="M154.477 55.6572L142.064 55.7424L141.909 33.2604C141.891 30.6199 141.346 28.7073 140.277 27.5199C139.209 26.3326 137.872 25.7441 136.269 25.757C135.131 25.7647 133.969 26.0719 132.784 26.681C131.597 27.2902 130.518 28.1238 129.542 29.1795C128.567 30.2378 127.852 31.4433 127.395 32.7958L127.555 55.8431L115.142 55.9283L114.863 15.662L126.035 15.5845L126.081 22.4685C127.103 20.8295 128.389 19.4435 129.932 18.3077C131.476 17.1746 133.254 16.3177 135.267 15.7421C137.281 15.1665 139.452 14.8695 141.78 14.854C144.469 14.836 146.632 15.28 148.266 16.1886C149.903 17.0972 151.152 18.2999 152.014 19.7996C152.879 21.2993 153.472 22.9409 153.795 24.727C154.118 26.5106 154.285 28.2478 154.296 29.9307L154.474 55.6572H154.477Z" fill="#29235C"/>
<path d="M233.231 55.8874C230.129 55.908 227.434 55.2885 225.15 54.0289C222.865 52.7667 221.069 50.9935 219.76 48.704L219.92 71.7306L207.507 71.8158L207.112 15.0248L217.896 14.95L217.943 21.5294C219.427 19.2735 221.301 17.4976 223.57 16.2044C225.836 14.9138 228.495 14.2556 231.548 14.235C234.289 14.2143 236.814 14.7099 239.124 15.714C241.432 16.7181 243.447 18.1739 245.167 20.0736C246.886 21.976 248.233 24.1751 249.209 26.6711C250.182 29.1671 250.68 31.8696 250.701 34.7786C250.729 38.7614 249.988 42.3388 248.486 45.5162C246.981 48.6936 244.903 51.2103 242.252 53.0661C239.602 54.922 236.594 55.8616 233.234 55.8849L233.231 55.8874ZM228.89 45.444C230.234 45.4336 231.46 45.1368 232.57 44.5509C233.678 43.9624 234.643 43.1751 235.464 42.1865C236.285 41.1979 236.909 40.0726 237.34 38.8078C237.771 37.5456 237.983 36.2059 237.973 34.794C237.962 33.3331 237.707 31.9986 237.209 30.7932C236.708 29.5878 236.016 28.5218 235.131 27.5952C234.246 26.6686 233.205 25.9458 232.013 25.4244C230.818 24.903 229.525 24.6474 228.128 24.6577C227.3 24.6629 226.461 24.8075 225.609 25.0862C224.757 25.365 223.957 25.7316 223.211 26.1859C222.465 26.6402 221.784 27.2054 221.167 27.8817C220.552 28.5605 220.039 29.3246 219.631 30.1712L219.688 38.5187C220.266 39.768 221.025 40.9269 221.962 41.9981C222.901 43.0693 223.965 43.9133 225.16 44.5302C226.352 45.1471 227.596 45.4517 228.89 45.444Z" fill="#29235C"/>
<path d="M171.087 18.4735C167.491 17.2217 163.64 16.992 159.962 18.0322C157.365 18.7678 155.494 21.7155 156.356 24.3819C157.218 27.0482 159.923 28.7751 162.706 27.9878C162.987 27.9078 163.271 27.8406 163.552 27.7658C164.125 27.6083 163.867 27.5981 163.46 27.7349C164.002 27.5516 164.856 27.6548 165.408 27.6832C165.527 27.6909 166.451 27.8071 165.826 27.7064C165.202 27.6057 166.154 27.7917 166.263 27.8149C166.97 27.9749 167.659 28.1891 168.343 28.4292C170.896 29.3197 174.102 27.4173 174.693 24.8232C175.348 21.9427 173.82 19.426 171.087 18.4735Z" fill="#29235C"/>
<path d="M203.597 35.7226C201.072 32.7826 197.892 30.5242 194.155 29.4272C191.563 28.6683 188.417 30.346 187.805 33.033C187.193 35.72 188.636 38.5697 191.411 39.3827C191.71 39.4705 192.005 39.5866 192.304 39.6692C192.887 39.8292 191.452 39.1917 192.281 39.664C192.844 39.9841 193.396 40.2888 193.935 40.645C194.418 40.965 194.137 40.8359 193.848 40.5649C194.101 40.8024 194.374 41.0165 194.627 41.2514C195.221 41.8064 195.768 42.4053 196.297 43.0222C198.063 45.0794 201.811 44.971 203.597 43.0222C205.607 40.8308 205.478 37.9166 203.597 35.7226Z" fill="#29235C"/>
<path d="M160.623 23.834C158.795 28.4285 158.54 33.8206 159.033 38.7016C159.564 43.9749 160.917 48.6778 164.267 52.8825C167.576 57.033 172.496 59.3355 177.743 59.6684C182.991 60.0014 188.05 57.7248 191.979 54.0105C196.555 49.6819 199.97 43.6704 201.4 37.5427C202.012 34.9176 200.587 31.828 197.794 31.193C195.156 30.5916 192.1 31.9853 191.444 34.7988C191.199 35.8468 190.902 36.8767 190.536 37.8885C190.443 38.1441 190.332 38.397 190.244 38.6525C190.585 37.6536 190.391 38.3247 190.285 38.557C189.996 39.1842 189.699 39.8037 189.377 40.4129C188.894 41.3214 188.362 42.2068 187.792 43.0637C187.49 43.5154 187.17 43.9491 186.852 44.3905C186.419 44.9945 187.41 43.7452 186.92 44.2924C186.7 44.5376 186.499 44.8009 186.282 45.0461C185.611 45.8101 184.896 46.5406 184.132 47.2143C183.949 47.3769 183.76 47.5318 183.574 47.6918C182.857 48.3139 183.66 47.5654 183.773 47.5447C183.35 47.6247 182.73 48.2622 182.341 48.4894C182.165 48.59 181.249 48.923 181.184 49.0908C181.218 49.003 182.392 48.67 181.551 48.9256C181.357 48.9849 181.169 49.0572 180.975 49.114C180.792 49.1682 179.932 49.2379 179.832 49.3696C179.857 49.336 180.851 49.2766 180.27 49.2999C179.966 49.3128 179.659 49.3515 179.354 49.3644C178.879 49.3825 178.402 49.3825 177.927 49.3567C177.986 49.3593 177.232 49.3102 177.232 49.305C177.245 49.2044 178.391 49.5219 177.589 49.3516C177.15 49.2586 176.714 49.1786 176.28 49.0573C176.068 48.9979 175.857 48.9334 175.648 48.8637C175.49 48.812 175.335 48.7578 175.183 48.6984C174.816 48.5591 174.976 48.6262 175.66 48.9075C175.65 48.8301 173.312 47.6996 173.405 47.5938C173.441 47.555 174.385 48.4429 173.67 47.7899C173.508 47.6402 173.335 47.4982 173.172 47.3485C172.801 47.0026 172.462 46.6284 172.119 46.2541C171.278 45.3301 172.586 46.9716 171.866 45.9237C171.629 45.5804 171.404 45.2267 171.195 44.8654C170.947 44.4395 170.715 44.0033 170.501 43.5619C170.418 43.3916 170.312 43.0354 170.186 42.8728C170.829 43.6936 170.57 43.8587 170.359 43.2031C170.124 42.4778 169.92 41.7499 169.755 41.004C169.662 40.5858 169.582 40.1652 169.507 39.7419C169.468 39.5199 169.437 39.2978 169.399 39.0784C169.239 38.1182 169.484 39.9198 169.422 39.241C169.213 36.9283 169.094 34.6363 169.262 32.3158C169.28 32.0629 169.3 31.8073 169.326 31.5543C169.342 31.384 169.473 30.2844 169.365 31.113C169.264 31.8744 169.378 31.0613 169.411 30.8729C169.463 30.5683 169.517 30.2663 169.582 29.9643C169.822 28.8105 170.152 27.6826 170.586 26.5882C171.587 24.0716 169.494 20.8115 166.98 20.2385C164.001 19.5597 161.702 21.1496 160.63 23.8443L160.623 23.834Z" fill="#29235C"/>
<path d="M1.94917 83.1364H3.03717V92.9284C3.03717 93.3444 3.11184 93.6164 3.26117 93.7444C3.41051 93.8724 3.59184 93.9364 3.80517 93.9364C3.99717 93.9364 4.18917 93.9151 4.38117 93.8724C4.57317 93.8297 4.73851 93.7871 4.87717 93.7444L5.06917 94.6244C4.86651 94.7097 4.61584 94.7791 4.31717 94.8324C4.02917 94.8857 3.77851 94.9124 3.56517 94.9124C3.07451 94.9124 2.67984 94.7684 2.38117 94.4804C2.09317 94.1924 1.94917 93.7977 1.94917 93.2964V83.1364ZM5.38405 86.4804L5.65605 84.7684H5.27205V83.1364H6.32805V84.7684L5.92805 86.4804H5.38405ZM6.83855 92.4164C6.83855 91.8937 6.98788 91.4457 7.28655 91.0724C7.58521 90.6884 7.99588 90.3951 8.51855 90.1924C9.05188 89.9791 9.66521 89.8724 10.3585 89.8724C10.7639 89.8724 11.1852 89.9044 11.6225 89.9684C12.0599 90.0324 12.4492 90.1284 12.7905 90.2564V89.5524C12.7905 88.8484 12.5825 88.2884 12.1665 87.8724C11.7505 87.4564 11.1745 87.2484 10.4385 87.2484C9.99055 87.2484 9.54788 87.3337 9.11055 87.5044C8.68388 87.6644 8.23588 87.9044 7.76655 88.2244L7.35055 87.4564C7.89455 87.0831 8.42788 86.8057 8.95055 86.6244C9.47321 86.4324 10.0065 86.3364 10.5505 86.3364C11.5745 86.3364 12.3852 86.6297 12.9825 87.2164C13.5799 87.8031 13.8785 88.6137 13.8785 89.6484V93.5044C13.8785 93.6537 13.9105 93.7657 13.9745 93.8404C14.0385 93.9044 14.1399 93.9417 14.2785 93.9524V94.8164C14.1612 94.8271 14.0599 94.8377 13.9745 94.8484C13.8892 94.8591 13.8252 94.8591 13.7825 94.8484C13.5159 94.8377 13.3132 94.7524 13.1745 94.5924C13.0359 94.4324 12.9612 94.2617 12.9505 94.0804L12.9345 93.4724C12.5612 93.9524 12.0759 94.3257 11.4785 94.5924C10.8812 94.8484 10.2732 94.9764 9.65455 94.9764C9.12121 94.9764 8.63588 94.8644 8.19855 94.6404C7.77188 94.4057 7.43588 94.0964 7.19055 93.7124C6.95588 93.3177 6.83855 92.8857 6.83855 92.4164ZM12.4225 93.0564C12.5399 92.9071 12.6305 92.7631 12.6945 92.6244C12.7585 92.4857 12.7905 92.3631 12.7905 92.2564V91.0404C12.4279 90.9017 12.0492 90.7951 11.6545 90.7204C11.2705 90.6457 10.8812 90.6084 10.4865 90.6084C9.70788 90.6084 9.07855 90.7631 8.59855 91.0724C8.11855 91.3817 7.87855 91.8031 7.87855 92.3364C7.87855 92.6457 7.95855 92.9391 8.11855 93.2164C8.27855 93.4831 8.51321 93.7071 8.82255 93.8884C9.13188 94.0591 9.49455 94.1444 9.91055 94.1444C10.4332 94.1444 10.9185 94.0431 11.3665 93.8404C11.8252 93.6377 12.1772 93.3764 12.4225 93.0564ZM18.4593 94.8164L15.0833 86.4804H16.2193L19.0673 93.7284L21.9313 86.4804H23.0033L19.6273 94.8164H18.4593ZM27.8293 94.9764C27.232 94.9764 26.6773 94.8644 26.1653 94.6404C25.6533 94.4057 25.2106 94.0911 24.8373 93.6964C24.464 93.2911 24.1706 92.8271 23.9573 92.3044C23.7546 91.7817 23.6533 91.2217 23.6533 90.6244C23.6533 89.8457 23.8293 89.1311 24.1813 88.4804C24.544 87.8297 25.04 87.3124 25.6693 86.9284C26.2986 86.5337 27.0133 86.3364 27.8133 86.3364C28.6346 86.3364 29.3493 86.5337 29.9573 86.9284C30.576 87.3231 31.0613 87.8457 31.4133 88.4964C31.7653 89.1364 31.9413 89.8404 31.9413 90.6084C31.9413 90.6937 31.9413 90.7791 31.9413 90.8644C31.9413 90.9391 31.936 90.9977 31.9253 91.0404H24.7893C24.8426 91.6377 25.008 92.1711 25.2853 92.6404C25.5733 93.0991 25.9413 93.4671 26.3893 93.7444C26.848 94.0111 27.344 94.1444 27.8773 94.1444C28.4213 94.1444 28.9333 94.0057 29.4133 93.7284C29.904 93.4511 30.2453 93.0884 30.4373 92.6404L31.3813 92.8964C31.2106 93.2911 30.9493 93.6484 30.5973 93.9684C30.2453 94.2884 29.8293 94.5391 29.3493 94.7204C28.88 94.8911 28.3733 94.9764 27.8293 94.9764ZM24.7573 90.2564H30.9173C30.8746 89.6484 30.7093 89.1151 30.4213 88.6564C30.144 88.1977 29.776 87.8404 29.3173 87.5844C28.8693 87.3177 28.3733 87.1844 27.8293 87.1844C27.2853 87.1844 26.7893 87.3177 26.3413 87.5844C25.8933 87.8404 25.5253 88.2031 25.2373 88.6724C24.96 89.1311 24.8 89.6591 24.7573 90.2564ZM40.6279 94.8164H39.5399V90.1604C39.5399 89.1791 39.3959 88.4644 39.1079 88.0164C38.8199 87.5577 38.3666 87.3284 37.7479 87.3284C37.3213 87.3284 36.8999 87.4351 36.4839 87.6484C36.0679 87.8511 35.6999 88.1337 35.3799 88.4964C35.0706 88.8484 34.8466 89.2537 34.7079 89.7124V94.8164H33.6199V86.4804H34.6119V88.3684C34.8359 87.9631 35.1293 87.6111 35.4919 87.3124C35.8546 87.0031 36.2653 86.7631 36.7239 86.5924C37.1826 86.4217 37.6573 86.3364 38.1479 86.3364C38.6066 86.3364 38.9959 86.4217 39.3159 86.5924C39.6359 86.7631 39.8919 87.0084 40.0839 87.3284C40.2759 87.6377 40.4146 88.0164 40.4999 88.4644C40.5853 88.9017 40.6279 89.3924 40.6279 89.9364V94.8164ZM42.948 94.8164V86.4804H44.036V94.8164H42.948ZM42.948 84.7364V83.1364H44.036V84.7364H42.948ZM50.5924 87.4404C49.8671 87.4617 49.2271 87.6644 48.6724 88.0484C48.1284 88.4324 47.7444 88.9604 47.5204 89.6324V94.8164H46.4324V86.4804H47.4564V88.4804C47.7444 87.8937 48.1231 87.4191 48.5924 87.0564C49.0724 86.6937 49.5791 86.4911 50.1124 86.4484C50.2191 86.4377 50.3098 86.4324 50.3844 86.4324C50.4698 86.4324 50.5391 86.4377 50.5924 86.4484V87.4404ZM55.0729 92.4164C55.0729 91.8937 55.2223 91.4457 55.5209 91.0724C55.8196 90.6884 56.2303 90.3951 56.7529 90.1924C57.2863 89.9791 57.8996 89.8724 58.5929 89.8724C58.9983 89.8724 59.4196 89.9044 59.8569 89.9684C60.2943 90.0324 60.6836 90.1284 61.0249 90.2564V89.5524C61.0249 88.8484 60.8169 88.2884 60.4009 87.8724C59.9849 87.4564 59.4089 87.2484 58.6729 87.2484C58.2249 87.2484 57.7823 87.3337 57.3449 87.5044C56.9183 87.6644 56.4703 87.9044 56.0009 88.2244L55.5849 87.4564C56.1289 87.0831 56.6623 86.8057 57.1849 86.6244C57.7076 86.4324 58.2409 86.3364 58.7849 86.3364C59.8089 86.3364 60.6196 86.6297 61.2169 87.2164C61.8143 87.8031 62.1129 88.6137 62.1129 89.6484V93.5044C62.1129 93.6537 62.1449 93.7657 62.2089 93.8404C62.2729 93.9044 62.3743 93.9417 62.5129 93.9524V94.8164C62.3956 94.8271 62.2943 94.8377 62.2089 94.8484C62.1236 94.8591 62.0596 94.8591 62.0169 94.8484C61.7503 94.8377 61.5476 94.7524 61.4089 94.5924C61.2703 94.4324 61.1956 94.2617 61.1849 94.0804L61.1689 93.4724C60.7956 93.9524 60.3103 94.3257 59.7129 94.5924C59.1156 94.8484 58.5076 94.9764 57.8889 94.9764C57.3556 94.9764 56.8703 94.8644 56.4329 94.6404C56.0063 94.4057 55.6703 94.0964 55.4249 93.7124C55.1903 93.3177 55.0729 92.8857 55.0729 92.4164ZM60.6569 93.0564C60.7743 92.9071 60.8649 92.7631 60.9289 92.6244C60.9929 92.4857 61.0249 92.3631 61.0249 92.2564V91.0404C60.6623 90.9017 60.2836 90.7951 59.8889 90.7204C59.5049 90.6457 59.1156 90.6084 58.7209 90.6084C57.9423 90.6084 57.3129 90.7631 56.8329 91.0724C56.3529 91.3817 56.1129 91.8031 56.1129 92.3364C56.1129 92.6457 56.1929 92.9391 56.3529 93.2164C56.5129 93.4831 56.7476 93.7071 57.0569 93.8884C57.3663 94.0591 57.7289 94.1444 58.1449 94.1444C58.6676 94.1444 59.1529 94.0431 59.6009 93.8404C60.0596 93.6377 60.4116 93.3764 60.6569 93.0564ZM64.3837 91.3764V86.4804H65.4717V91.1844C65.4717 92.1337 65.6317 92.8431 65.9517 93.3124C66.2823 93.7817 66.7677 94.0164 67.4077 94.0164C67.8343 94.0164 68.245 93.9257 68.6397 93.7444C69.045 93.5524 69.4023 93.2857 69.7117 92.9444C70.021 92.5924 70.2557 92.1871 70.4157 91.7284V86.4804H71.5037V93.5044C71.5037 93.6537 71.5357 93.7657 71.5997 93.8404C71.6637 93.9044 71.7597 93.9417 71.8877 93.9524V94.8164C71.7597 94.8271 71.6583 94.8324 71.5837 94.8324C71.509 94.8431 71.4397 94.8484 71.3757 94.8484C71.1623 94.8271 70.9757 94.7417 70.8157 94.5924C70.6663 94.4431 70.5863 94.2617 70.5757 94.0484L70.5437 92.9284C70.181 93.5684 69.685 94.0697 69.0557 94.4324C68.437 94.7951 67.765 94.9764 67.0397 94.9764C66.165 94.9764 65.5037 94.6724 65.0557 94.0644C64.6077 93.4564 64.3837 92.5604 64.3837 91.3764ZM81.6578 94.9764C81.0498 94.9764 80.4898 94.8644 79.9778 94.6404C79.4765 94.4057 79.0338 94.0857 78.6498 93.6804C78.2765 93.2751 77.9831 92.8111 77.7698 92.2884C77.5671 91.7657 77.4658 91.2111 77.4658 90.6244C77.4658 89.8351 77.6418 89.1151 77.9938 88.4644C78.3458 87.8137 78.8365 87.2964 79.4658 86.9124C80.0951 86.5284 80.8205 86.3364 81.6418 86.3364C82.4205 86.3364 83.1085 86.5177 83.7058 86.8804C84.3031 87.2324 84.7458 87.7124 85.0338 88.3204L83.9778 88.6564C83.7431 88.2297 83.4125 87.8991 82.9858 87.6644C82.5698 87.4191 82.1058 87.2964 81.5938 87.2964C81.0391 87.2964 80.5325 87.4404 80.0738 87.7284C79.6151 88.0164 79.2471 88.4111 78.9698 88.9124C78.7031 89.4137 78.5698 89.9844 78.5698 90.6244C78.5698 91.2537 78.7085 91.8244 78.9858 92.3364C79.2631 92.8484 79.6311 93.2591 80.0898 93.5684C80.5485 93.8671 81.0551 94.0164 81.6098 94.0164C81.9725 94.0164 82.3191 93.9524 82.6498 93.8244C82.9911 93.6964 83.2845 93.5257 83.5298 93.3124C83.7858 93.0884 83.9565 92.8484 84.0418 92.5924L85.1138 92.9124C84.9645 93.3071 84.7138 93.6644 84.3618 93.9844C84.0205 94.2937 83.6151 94.5391 83.1458 94.7204C82.6871 94.8911 82.1911 94.9764 81.6578 94.9764ZM90.2969 94.9764C89.6996 94.9764 89.1449 94.8644 88.6329 94.6404C88.1316 94.4057 87.6943 94.0911 87.3209 93.6964C86.9583 93.2911 86.6756 92.8324 86.4729 92.3204C86.2703 91.7977 86.1689 91.2484 86.1689 90.6724C86.1689 90.0751 86.2703 89.5204 86.4729 89.0084C86.6756 88.4857 86.9636 88.0271 87.3369 87.6324C87.7103 87.2271 88.1476 86.9124 88.6489 86.6884C89.1609 86.4537 89.7156 86.3364 90.3129 86.3364C90.9103 86.3364 91.4596 86.4537 91.9609 86.6884C92.4623 86.9124 92.8996 87.2271 93.2729 87.6324C93.6463 88.0271 93.9343 88.4857 94.1369 89.0084C94.3396 89.5204 94.4409 90.0751 94.4409 90.6724C94.4409 91.2484 94.3396 91.7977 94.1369 92.3204C93.9343 92.8324 93.6463 93.2911 93.2729 93.6964C92.9103 94.0911 92.4729 94.4057 91.9609 94.6404C91.4596 94.8644 90.9049 94.9764 90.2969 94.9764ZM87.2729 90.6884C87.2729 91.3071 87.4063 91.8724 87.6729 92.3844C87.9503 92.8857 88.3183 93.2857 88.7769 93.5844C89.2356 93.8724 89.7423 94.0164 90.2969 94.0164C90.8516 94.0164 91.3583 93.8671 91.8169 93.5684C92.2756 93.2697 92.6436 92.8644 92.9209 92.3524C93.1983 91.8297 93.3369 91.2644 93.3369 90.6564C93.3369 90.0377 93.1983 89.4724 92.9209 88.9604C92.6436 88.4484 92.2756 88.0431 91.8169 87.7444C91.3583 87.4457 90.8516 87.2964 90.2969 87.2964C89.7423 87.2964 89.2356 87.4511 88.7769 87.7604C88.3289 88.0697 87.9663 88.4804 87.6889 88.9924C87.4116 89.4937 87.2729 90.0591 87.2729 90.6884ZM96.3085 83.1364H97.3965V92.9284C97.3965 93.3444 97.4712 93.6164 97.6205 93.7444C97.7699 93.8724 97.9512 93.9364 98.1645 93.9364C98.3565 93.9364 98.5485 93.9151 98.7405 93.8724C98.9325 93.8297 99.0979 93.7871 99.2365 93.7444L99.4285 94.6244C99.2259 94.7097 98.9752 94.7791 98.6765 94.8324C98.3885 94.8857 98.1379 94.9124 97.9245 94.9124C97.4339 94.9124 97.0392 94.7684 96.7405 94.4804C96.4525 94.1924 96.3085 93.7977 96.3085 93.2964V83.1364ZM100.668 83.1364H101.756V92.9284C101.756 93.3444 101.831 93.6164 101.98 93.7444C102.129 93.8724 102.311 93.9364 102.524 93.9364C102.716 93.9364 102.908 93.9151 103.1 93.8724C103.292 93.8297 103.457 93.7871 103.596 93.7444L103.788 94.6244C103.585 94.7097 103.335 94.7791 103.036 94.8324C102.748 94.8857 102.497 94.9124 102.284 94.9124C101.793 94.9124 101.399 94.7684 101.1 94.4804C100.812 94.1924 100.668 93.7977 100.668 93.2964V83.1364ZM108.579 94.9764C107.982 94.9764 107.427 94.8644 106.915 94.6404C106.403 94.4057 105.961 94.0911 105.587 93.6964C105.214 93.2911 104.921 92.8271 104.707 92.3044C104.505 91.7817 104.403 91.2217 104.403 90.6244C104.403 89.8457 104.579 89.1311 104.931 88.4804C105.294 87.8297 105.79 87.3124 106.419 86.9284C107.049 86.5337 107.763 86.3364 108.563 86.3364C109.385 86.3364 110.099 86.5337 110.707 86.9284C111.326 87.3231 111.811 87.8457 112.163 88.4964C112.515 89.1364 112.691 89.8404 112.691 90.6084C112.691 90.6937 112.691 90.7791 112.691 90.8644C112.691 90.9391 112.686 90.9977 112.675 91.0404H105.539C105.593 91.6377 105.758 92.1711 106.035 92.6404C106.323 93.0991 106.691 93.4671 107.139 93.7444C107.598 94.0111 108.094 94.1444 108.627 94.1444C109.171 94.1444 109.683 94.0057 110.163 93.7284C110.654 93.4511 110.995 93.0884 111.187 92.6404L112.131 92.8964C111.961 93.2911 111.699 93.6484 111.347 93.9684C110.995 94.2884 110.579 94.5391 110.099 94.7204C109.63 94.8911 109.123 94.9764 108.579 94.9764ZM105.507 90.2564H111.667C111.625 89.6484 111.459 89.1151 111.171 88.6564C110.894 88.1977 110.526 87.8404 110.067 87.5844C109.619 87.3177 109.123 87.1844 108.579 87.1844C108.035 87.1844 107.539 87.3177 107.091 87.5844C106.643 87.8404 106.275 88.2031 105.987 88.6724C105.71 89.1311 105.55 89.6591 105.507 90.2564ZM117.986 94.9764C117.378 94.9764 116.818 94.8644 116.306 94.6404C115.805 94.4057 115.362 94.0857 114.978 93.6804C114.605 93.2751 114.311 92.8111 114.098 92.2884C113.895 91.7657 113.794 91.2111 113.794 90.6244C113.794 89.8351 113.97 89.1151 114.322 88.4644C114.674 87.8137 115.165 87.2964 115.794 86.9124C116.423 86.5284 117.149 86.3364 117.97 86.3364C118.749 86.3364 119.437 86.5177 120.034 86.8804C120.631 87.2324 121.074 87.7124 121.362 88.3204L120.306 88.6564C120.071 88.2297 119.741 87.8991 119.314 87.6644C118.898 87.4191 118.434 87.2964 117.922 87.2964C117.367 87.2964 116.861 87.4404 116.402 87.7284C115.943 88.0164 115.575 88.4111 115.298 88.9124C115.031 89.4137 114.898 89.9844 114.898 90.6244C114.898 91.2537 115.037 91.8244 115.314 92.3364C115.591 92.8484 115.959 93.2591 116.418 93.5684C116.877 93.8671 117.383 94.0164 117.938 94.0164C118.301 94.0164 118.647 93.9524 118.978 93.8244C119.319 93.6964 119.613 93.5257 119.858 93.3124C120.114 93.0884 120.285 92.8484 120.37 92.5924L121.442 92.9124C121.293 93.3071 121.042 93.6644 120.69 93.9844C120.349 94.2937 119.943 94.5391 119.474 94.7204C119.015 94.8911 118.519 94.9764 117.986 94.9764ZM127.151 94.4164C127.066 94.4484 126.933 94.5071 126.751 94.5924C126.57 94.6777 126.351 94.7524 126.095 94.8164C125.839 94.8804 125.562 94.9124 125.263 94.9124C124.954 94.9124 124.661 94.8537 124.383 94.7364C124.117 94.6191 123.903 94.4431 123.743 94.2084C123.583 93.9631 123.503 93.6644 123.503 93.3124V87.3444H122.351V86.4804H123.503V83.6644H124.591V86.4804H126.511V87.3444H124.591V93.0084C124.613 93.3071 124.719 93.5311 124.911 93.6804C125.114 93.8297 125.343 93.9044 125.599 93.9044C125.898 93.9044 126.17 93.8564 126.415 93.7604C126.661 93.6537 126.81 93.5791 126.863 93.5364L127.151 94.4164ZM128.511 94.8164V86.4804H129.599V94.8164H128.511ZM128.511 84.7364V83.1364H129.599V84.7364H128.511ZM132.395 94.8164V87.3444H131.243V86.4804H132.395V86.2564C132.395 85.5737 132.491 84.9871 132.683 84.4964C132.886 84.0057 133.168 83.6324 133.531 83.3764C133.904 83.1097 134.342 82.9764 134.843 82.9764C135.174 82.9764 135.494 83.0244 135.803 83.1204C136.112 83.2164 136.379 83.3444 136.603 83.5044L136.267 84.2884C136.128 84.1711 135.947 84.0804 135.723 84.0164C135.499 83.9524 135.275 83.9204 135.051 83.9204C134.55 83.9204 134.16 84.1177 133.883 84.5124C133.616 84.9071 133.483 85.4777 133.483 86.2244V86.4804H135.787V87.3444H133.483V94.8164H132.395Z" fill="black"/>
</svg>
