<svg width="279" height="171" viewBox="0 0 279 171" fill="none" xmlns="http://www.w3.org/2000/svg">
<path d="M91.7038 101.403C90.6729 100.237 89.8701 98.7669 88.949 98.4373C88.8814 98.412 88.8138 98.3951 88.7462 98.3866C88.349 99.7302 87.9519 101.065 87.5463 102.358C88.0448 105.848 88.5603 109.389 89.0673 112.955C90.4954 109.609 91.6108 106.051 92.6333 102.434C92.3122 102.096 92.008 101.75 91.7038 101.403ZM109.872 114.417C110.59 114.349 111.283 114.214 111.976 114.003C111.241 113.614 110.43 113.766 109.872 114.417ZM91.7038 101.403C90.6729 100.237 89.8701 98.7669 88.949 98.4373C88.8814 98.412 88.8138 98.3951 88.7462 98.3866C88.349 99.7302 87.9519 101.065 87.5463 102.358C88.0448 105.848 88.5603 109.389 89.0673 112.955C90.4954 109.609 91.6108 106.051 92.6333 102.434C92.3122 102.096 92.008 101.75 91.7038 101.403ZM97.2133 77.3287C96.9767 77.1597 96.7317 76.9907 96.4782 76.8386C94.1037 75.3598 91.1883 74.6584 88.5265 75.7147C87.8927 75.9175 86.7942 76.2386 86.3463 75.8921L86.3125 75.8668C85.8309 75.571 85.9661 74.4556 86.2703 73.6275C87.428 70.7797 88.3152 67.3489 88.273 64.0872C88.6279 49.9753 82.8564 41.3898 72.0739 38.1111C58.3 34.0128 38.9912 38.052 29.8565 49.6795C23.502 58.4086 24.2709 70.4417 29.8903 79.3821C30.7692 80.8778 30.9297 81.6636 29.2397 81.6805C28.7496 81.7059 28.1242 81.6805 27.5919 81.689C19.2177 81.8242 16.2517 93.4433 7.26061 97.0008C5.48606 97.8796 3.34815 98.319 1.79331 99.3838C-4.28241 104.876 6.57614 117.966 12.1448 119.25C16.5981 120.391 23.3921 116.597 27.2116 114.307C29.096 113.242 33.9972 108.003 33.845 113.166C33.769 120.188 33.1352 127.202 32.4423 134.173C31.9437 140.739 30.634 146.984 29.8734 153.558C29.6791 156.102 29.3749 158.983 30.6678 161.02C33.9972 165.498 44.4078 166.487 50.23 165.65C54.0073 164.974 56.5255 162.676 56.6438 158.806C56.8128 156.381 56.4156 153.854 56.2635 151.386C56.179 149.95 56.103 148.37 56.6691 147.449C57.7254 145.818 59.9225 146.418 61.9759 146.054C64.832 145.835 69.3107 143.79 70.1472 147.99C71.5077 152.341 73.7301 161.561 77.0426 163.022C79.2397 163.555 83.3634 162.49 85.9238 161.873C91.0024 160.53 95.3458 159.592 96.0303 154.091C96.4951 145.387 95.5909 137.258 94.5093 127.946C94.2896 126.061 94.0614 124.126 93.8333 122.132C92.1516 121.059 90.7151 119.749 89.8109 118.27C90.1574 120.839 90.4954 123.408 90.7996 125.977C91.6784 133.227 92.3714 140.46 92.6164 147.533C92.6164 149.299 92.5404 151.099 92.3038 152.84C92.1179 154.724 91.4587 156.381 89.625 156.955C87.4026 157.783 83.5071 158.485 80.9128 159.017C79.7045 159.245 78.1412 159.761 77.7271 158.206C76.6708 155.147 73.8315 146.376 72.5471 142.607C71.9302 140.249 69.4121 140.874 67.6122 141.331C65.0602 141.939 62.2209 142.548 59.5337 142.463C56.7621 142.201 53.0524 141.246 52.5539 145.066C51.9708 148.387 52.6299 154.226 52.6806 157.809C52.8074 159.879 51.8525 161.349 49.6977 161.772C46.1317 162.583 41.6446 161.983 38.1462 161.206C33.9295 160.462 33.0338 158.113 33.5493 154.31C35.4337 139.725 38.0702 125.056 37.3941 110.293C37.3519 109.102 37.0815 107.766 36.3379 107.09C32.9578 104.327 28.0735 109.059 25.1667 110.901C22.3189 112.777 18.9811 114.307 15.677 115.203C9.97314 116.538 5.58747 109.989 3.85517 105.206C2.79889 102.24 6.22123 101.471 8.25774 100.541C10.9365 99.3922 13.6236 97.3811 16.0151 95.353C18.0516 93.6292 20.1219 91.7448 21.5584 89.7252C22.5893 88.3309 23.3837 86.7422 25.0906 86.0662C27.7947 84.8494 30.9635 86.1761 33.6591 86.5563C36.8111 86.9028 37.1406 83.3621 35.8562 81.2834C7.26906 44.8882 74.6512 24.5908 83.5662 54.4961C85.2056 60.6648 85.0704 67.7292 82.7972 73.6697C81.1748 77.2864 77.6342 81.7312 84.3943 81.2073C86.8365 81.0806 89.2194 79.2891 91.4925 79.1708C92.7094 79.2131 93.791 79.6356 94.7966 80.2693C96.174 81.1313 97.3992 82.3988 98.5654 83.5987C99.1062 82.3143 99.7062 81.0552 100.365 79.8384C99.3174 78.9004 98.2696 78.0469 97.2133 77.3287ZM88.949 98.4373C88.8814 98.412 88.8138 98.3951 88.7462 98.3866C88.349 99.7302 87.9519 101.065 87.5463 102.358C88.0448 105.848 88.5603 109.389 89.0673 112.955C90.4954 109.609 91.6108 106.051 92.6333 102.434C92.3122 102.096 92.008 101.75 91.7038 101.403C90.6729 100.237 89.8701 98.7669 88.949 98.4373ZM91.7038 101.403C90.6729 100.237 89.8701 98.7669 88.949 98.4373C88.8814 98.412 88.8138 98.3951 88.7462 98.3866C88.349 99.7302 87.9519 101.065 87.5463 102.358C88.0448 105.848 88.5603 109.389 89.0673 112.955C90.4954 109.609 91.6108 106.051 92.6333 102.434C92.3122 102.096 92.008 101.75 91.7038 101.403Z" fill="#29235C"/>
<path d="M79.4847 62.0675C78.5806 62.4562 77.3637 62.5238 76.6793 63.166L76.6286 63.2167C76.1384 63.6815 75.868 64.4589 75.5554 65.3547C73.6963 70.9487 68.5924 75.7907 62.9054 77.5568C57.3367 79.2637 50.7877 78.3934 46.6218 74.4556C45.5486 73.526 44.4754 72.4782 43.4783 71.2867C42.2361 69.8586 41.5009 68.4052 40.0728 67.4841C39.0842 66.8334 37.842 66.8503 36.997 66.1321C35.3999 64.6702 37.6814 63.1576 39.1011 62.7773C41.5263 61.9661 46.2838 59.9803 46.1232 63.2336C45.3627 65.4138 44.2135 65.9124 45.9035 68.2193C52.8412 78.123 67.6967 75.478 71.5753 64.2646C71.9302 63.1998 71.9978 62.1774 71.3894 61.2563C70.6458 60.0986 68.1192 58.5776 69.3614 57.0227C70.9416 55.7721 73.5104 57.4199 75.3188 57.6227C77.2116 58.0452 80.0593 58.5776 80.7523 59.8366C81.3353 60.8253 80.4143 61.7211 79.4847 62.0675Z" fill="#29235C"/>
<path d="M94.7966 80.2693C92.2954 85.8718 90.5293 92.3194 88.7463 98.3866C88.8139 98.3866 88.8815 98.412 88.9491 98.4373C89.8701 98.7669 90.6729 100.237 91.7038 101.403C92.008 101.75 92.3123 102.096 92.6334 102.434C94.4586 96.0713 96.0135 89.5308 98.5654 83.5987C97.3993 82.3988 96.174 81.1312 94.7966 80.2693ZM213.421 32.1537C210.801 30.4974 206.872 30.3284 204.734 32.8128C200.551 38.1956 194.78 42.5982 189.312 46.7726C186.169 48.9528 183.059 51.4456 179.324 52.5188C177.212 52.6624 178.412 50.0344 178.817 48.1077C181.91 36.007 181.64 21.6163 173.375 11.5774C157.523 -7.30044 115.255 -0.75151 102.622 20.2304C95.8952 32.0016 97.6444 47.1106 105.512 57.8593C106.585 59.3043 107.7 61.1633 107.176 62.8872C106.483 65.2871 103.94 67.3067 102.25 69.1911C100.72 70.7713 99.3175 72.3514 98.1091 74.1429C97.5345 75.0048 96.9937 75.9006 96.4782 76.8385C95.8782 77.937 95.3205 79.0863 94.7966 80.2693C92.2954 85.8718 90.5293 92.3194 88.7463 98.3866C88.3491 99.7302 87.9519 101.065 87.5463 102.358C87.3351 103.051 87.1154 103.744 86.8872 104.42C86.1943 106.499 85.2986 108.713 84.538 110.656C83.6846 112.862 82.9578 114.898 83.6339 117.222C84.9521 120.957 87.5632 123.864 90.7997 125.977C91.9573 126.737 93.208 127.396 94.5093 127.946C97.1035 129.053 99.9006 129.745 102.655 130.033C104.7 130.354 107.295 130.092 107.278 131.959C106.787 140.249 103.999 151.158 104.59 159.862C105.317 166.453 111.832 167.256 117.562 168.549C121.28 169.25 124.922 170.045 128.64 169.394C132.071 168.709 136.786 167.51 138.662 164.205L138.696 164.138C139.093 163.208 139.076 162.177 139.093 161.146C139.093 157.268 139.076 148.615 139.11 145.438C139.143 144.685 139.127 143.866 139.912 143.57C143.124 142.902 147.881 142.86 151.278 142.48C153.145 142.328 154.421 142.243 155.182 142.683C156.069 143.122 156.492 144.677 156.847 145.792C158.858 151.454 160.742 162.693 165.55 165.363C167.232 166.166 168.956 165.929 170.933 165.549C173.004 165.16 175.226 164.67 177.305 164.172C182.214 162.963 186.177 161.975 189.279 158.206C190.715 156.178 190.732 153.854 190.918 151.31C191.45 136.472 188.704 120.247 187.09 106.304C186.262 100.44 185.037 94.5756 184.834 88.6604C184.817 87.5027 184.952 86.4042 185.375 85.4578C185.915 84.1902 187.073 83.1931 188.298 82.4748C191.67 80.5482 195.253 78.8074 198.616 76.9061C204.962 73.2556 210.058 69.8586 216.379 64.4505C220.266 60.876 225.065 56.3974 225.522 51.1076C225.285 44.5924 218.762 35.7197 213.421 32.1537ZM202.765 68.6249C198.768 71.3121 194.873 73.6359 190.766 75.8498C188.56 77.0413 186.38 78.292 184.116 79.1032C181.445 79.9651 178.648 81.3425 179.13 84.6465C181.817 101.234 184.006 118.878 185.459 135.525C185.89 141.086 186 147.432 185.594 152.882C185.476 155.443 184.623 156.626 182.451 157.361C179.4 158.51 173.477 159.93 170.139 160.42C169.1 160.563 167.916 160.614 167.198 159.794L167.148 159.735C166.395 158.797 166.083 157.378 165.677 156.178C164.596 152.722 163.201 149.358 162.111 145.911C160.886 142.37 160.649 135.652 155.326 136.717C151.405 137.587 147.551 138.61 143.462 138.39C141.662 138.356 139.752 138.137 137.977 138.297C131.285 138.863 134.039 150.313 134.183 154.8C134.91 161.907 133.144 164.003 126.375 164.29C122.995 164.442 118.973 163.969 115.77 163.251C113.362 162.676 111.469 162.177 110.37 160.876C105.545 155.307 116.835 122.098 112.939 114.924C112.66 114.493 112.322 114.189 111.976 114.003C111.241 113.614 110.43 113.766 109.872 114.417C109.745 114.56 109.635 114.729 109.542 114.924C107.945 117.459 108.554 123.349 105.85 124.836C102.664 125.706 97.619 124.532 93.8333 122.132C92.1517 121.059 90.7152 119.749 89.811 118.27C88.8561 116.741 88.4758 115.025 88.9575 113.208C88.9913 113.124 89.0336 113.039 89.0674 112.955C90.4955 109.609 91.6109 106.051 92.6334 102.434C94.4586 96.0713 96.0135 89.5308 98.5654 83.5987C99.1062 82.3143 99.7062 81.0552 100.365 79.8384C102.03 76.7287 104.083 73.864 106.728 71.3797C108.942 69.0897 112.06 66.1405 113.066 63.2252C114.232 59.693 110.692 56.9382 108.858 54.0313C98.1007 38.6519 103.416 20.7121 117.9 12.5238C130.981 4.73269 150.94 1.81736 164.697 10.5634C177.398 19.0643 179.172 39.4293 171.187 52.8737C170.342 54.3609 169.218 56.4819 170.004 57.4114C170.561 58.1889 171.736 58.4846 172.792 58.6114C186.084 59.617 196.444 47.1022 206.39 38.6857C207.751 37.5196 209.399 36.007 211.241 36.7253C213.607 37.79 215.905 41.0687 217.435 43.4855C219.023 46.2825 220.79 48.6485 220.595 51.6568C219.235 57.2255 210.201 63.428 202.765 68.6249ZM94.7966 80.2693C92.2954 85.8718 90.5293 92.3194 88.7463 98.3866C88.8139 98.3866 88.8815 98.412 88.9491 98.4373C89.8701 98.7669 90.6729 100.237 91.7038 101.403C92.008 101.75 92.3123 102.096 92.6334 102.434C94.4586 96.0713 96.0135 89.5308 98.5654 83.5987C97.3993 82.3988 96.174 81.1312 94.7966 80.2693Z" fill="#29235C"/>
<path d="M94.7966 80.2693C92.2954 85.8718 90.5293 92.3193 88.7463 98.3866M94.7966 80.2693C96.174 81.1312 97.3993 82.3988 98.5654 83.5987M94.7966 80.2693C95.3205 79.0863 95.8782 77.9371 96.4782 76.8385C96.9937 75.9005 97.5345 75.0048 98.1091 74.1429C99.3175 72.3514 100.72 70.7713 102.25 69.1911C103.94 67.3067 106.483 65.2871 107.176 62.8872C107.7 61.1633 106.585 59.3043 105.512 57.8593C97.6444 47.1106 95.8952 32.0016 102.622 20.2304C115.255 -0.75151 157.523 -7.30044 173.375 11.5774C181.64 21.6163 181.91 36.007 178.817 48.1077C178.412 50.0344 177.212 52.6624 179.324 52.5188C183.059 51.4456 186.169 48.9528 189.312 46.7726C194.78 42.5982 200.551 38.1956 204.734 32.8128C206.872 30.3284 210.801 30.4974 213.421 32.1537C218.762 35.7197 225.285 44.5924 225.522 51.1076C225.065 56.3974 220.266 60.876 216.379 64.4505C210.058 69.8586 204.962 73.2556 198.616 76.9061C195.253 78.8074 191.67 80.5482 188.298 82.4748C187.073 83.1931 185.915 84.1902 185.375 85.4578C184.952 86.4042 184.817 87.5027 184.834 88.6604C185.037 94.5756 186.262 100.44 187.09 106.304C188.704 120.247 191.45 136.472 190.918 151.31C190.732 153.854 190.715 156.178 189.279 158.206C186.177 161.975 182.214 162.963 177.305 164.172C175.226 164.67 173.004 165.16 170.933 165.549C168.956 165.929 167.232 166.166 165.55 165.363C160.742 162.693 158.858 151.454 156.847 145.792C156.492 144.677 156.069 143.122 155.182 142.683C154.421 142.243 153.145 142.328 151.278 142.48C147.881 142.86 143.124 142.902 139.912 143.57C139.127 143.866 139.143 144.685 139.11 145.438C139.076 148.615 139.093 157.268 139.093 161.146C139.076 162.177 139.093 163.208 138.696 164.138L138.662 164.205C136.786 167.51 132.071 168.709 128.64 169.394C124.922 170.045 121.28 169.25 117.562 168.549C111.832 167.256 105.317 166.453 104.59 159.862C103.999 151.158 106.787 140.249 107.278 131.959C107.295 130.092 104.7 130.354 102.655 130.033C99.9006 129.745 97.1035 129.053 94.5093 127.946C93.208 127.396 91.9573 126.737 90.7997 125.977C87.5632 123.864 84.9521 120.957 83.6339 117.222C82.9578 114.898 83.6846 112.862 84.538 110.656C85.2986 108.713 86.1943 106.499 86.8872 104.42C87.1154 103.744 87.3351 103.051 87.5463 102.358C87.9519 101.065 88.3491 99.7302 88.7463 98.3866M88.7463 98.3866C88.8139 98.3866 88.8815 98.412 88.9491 98.4373C89.8701 98.7669 90.6729 100.237 91.7038 101.403C92.008 101.75 92.3123 102.096 92.6334 102.434M92.6334 102.434C94.4586 96.0713 96.0135 89.5308 98.5654 83.5987M92.6334 102.434C91.6109 106.051 90.4955 109.609 89.0674 112.955C89.0336 113.039 88.9913 113.124 88.9575 113.208C88.4758 115.025 88.8561 116.741 89.811 118.27C90.7152 119.749 92.1517 121.059 93.8333 122.132C97.619 124.532 102.664 125.706 105.85 124.836C108.554 123.349 107.945 117.459 109.542 114.924C109.635 114.729 109.745 114.56 109.872 114.417C110.43 113.766 111.241 113.614 111.976 114.003C112.322 114.189 112.66 114.493 112.939 114.924C116.835 122.098 105.545 155.307 110.37 160.876C111.469 162.177 113.362 162.676 115.77 163.251C118.973 163.969 122.995 164.442 126.375 164.29C133.144 164.003 134.91 161.907 134.183 154.8C134.039 150.313 131.285 138.863 137.977 138.297C139.752 138.137 141.662 138.356 143.462 138.39C147.551 138.61 151.405 137.587 155.326 136.717C160.649 135.652 160.886 142.37 162.111 145.911C163.201 149.358 164.596 152.722 165.677 156.178C166.083 157.378 166.395 158.797 167.148 159.735L167.198 159.794C167.916 160.614 169.1 160.563 170.139 160.42C173.477 159.93 179.4 158.51 182.451 157.361C184.623 156.626 185.476 155.443 185.594 152.882C186 147.432 185.89 141.086 185.459 135.525C184.006 118.878 181.817 101.234 179.13 84.6465C178.648 81.3425 181.445 79.9651 184.116 79.1032C186.38 78.292 188.56 77.0413 190.766 75.8498C194.873 73.6359 198.768 71.3121 202.765 68.6249C210.201 63.428 219.235 57.2255 220.595 51.6568C220.79 48.6485 219.023 46.2825 217.435 43.4855C215.905 41.0687 213.607 37.79 211.241 36.7253C209.399 36.007 207.751 37.5196 206.39 38.6857C196.444 47.1022 186.084 59.617 172.792 58.6114C171.736 58.4846 170.561 58.1889 170.004 57.4114C169.218 56.4819 170.342 54.3609 171.187 52.8737C179.172 39.4293 177.398 19.0643 164.697 10.5634C150.94 1.81736 130.981 4.73269 117.9 12.5238C103.416 20.7121 98.1007 38.6519 108.858 54.0313C110.692 56.9382 114.232 59.693 113.066 63.2252C112.06 66.1405 108.942 69.0897 106.728 71.3797C104.083 73.864 102.03 76.7287 100.365 79.8384C99.7062 81.0552 99.1062 82.3143 98.5654 83.5987" stroke="#29235C" stroke-width="0.845023" stroke-miterlimit="10"/>
<path d="M164.731 34.3508C158.587 55.6707 137.081 62.5661 121.508 44.6854C120.46 43.4771 119.699 41.1025 118.795 40.4434C117.891 39.7843 116.15 40.773 114.443 40.0801C112.787 39.4125 112.626 36.3451 114.105 35.6944C114.798 35.3902 122.395 33.134 123.096 33.0495C124.423 32.8805 125.445 33.1931 126.637 33.6832C127.566 38.5337 121.795 36.2437 125.014 41.1786C135.172 56.7608 156.72 49.9753 159.838 32.9565C157.945 32.4833 154.523 31.2242 154.295 29.1032C153.788 24.3542 159.88 27.9624 161.917 28.4441C164.68 29.0948 170.62 29.0525 170.925 31.9256C171.296 35.3902 166.86 34.5198 164.739 34.3508H164.731Z" fill="#29235C" stroke="#29235C" stroke-width="0.845023" stroke-miterlimit="10"/>
<path d="M254.835 94.5672C256.12 95.6319 264.545 88.5337 265.939 87.2408C267.114 86.2437 267.756 84.6043 269.277 84.0889C272.733 83.2607 276.553 88.821 277.693 92.0574C279.519 96.2572 274.516 99.8485 270.832 102.789C267.426 105.443 263.522 107.242 259.855 109.465C258.689 110.149 258.063 111.375 258.156 112.71C258.216 115.372 258.765 117.991 259.179 120.636C260.26 126.425 259.111 131.14 263.319 136.294C263.852 137.004 264.435 137.689 265.043 138.331C265.905 139.227 266.911 140.139 266.607 141.432C266.336 142.615 265.339 143.486 264.705 144.457C263.869 145.716 263.303 146.975 262.094 147.905C260.26 149.367 258.106 150.778 255.807 151.234C252.816 151.826 249.9 151.201 247.754 149.063C246.284 147.694 245.058 145.953 244.163 144.187C243.614 143.122 243.132 142.015 242.65 140.925C242.278 140.021 241.839 139.201 240.69 139.184C239.49 139.184 238.112 139.252 237.149 139.843C236.532 140.258 236.228 141.001 235.907 141.686C233.346 147.263 231.107 152.908 224.668 153.431C221.989 153.719 219.894 152.891 217.722 151.167C214.908 148.86 210.7 145.015 211.908 141.111C212.196 140.342 212.753 139.734 213.269 139.108C214.029 138.229 214.781 137.258 215.415 136.311C216.547 134.647 217.671 132.881 218.635 130.962C220.654 126.881 221.854 122.149 219.108 118.524C217.637 116.893 215.364 115.955 213.438 114.907C211.342 113.867 209.737 112.837 207.894 111.561C203.458 108.392 197.712 104.116 196.698 99.8316C196.444 98.0233 197.348 96.4854 198.303 94.8629C199.706 92.6659 201.396 90.511 203.297 88.8125C205.697 86.6239 207.531 87.1225 209.644 89.2351C210.7 90.1477 217.029 96.9079 217.899 96.0713C218.035 95.7502 217.553 94.677 217.156 93.6545C215.424 89.4632 215.136 84.8747 216.902 80.7172C221.744 69.5714 240.58 65.6336 250.247 72.4444C256.466 76.9653 257.083 85.8634 255.038 92.9616C254.928 93.4179 254.641 94.246 254.819 94.5756L254.835 94.601V94.5672ZM250.999 97.3642C250.441 96.8065 250.999 95.6741 251.345 94.9897C255.258 88.3562 254.506 78.4272 248.16 74.05C246.546 72.9008 244.416 72.1571 242.43 71.8276C226.341 69.1573 210.303 82.2214 222.116 97.1107C223.426 99.012 222.775 100.643 220.46 100.153C218.466 99.6288 216.1 98.1162 214.249 96.8403C213.303 96.1811 212.517 95.5558 211.722 94.7531C210.489 93.5362 208.891 91.7532 207.573 90.773C206.238 89.6407 204.785 90.5786 203.644 91.8208C201.886 93.7052 199.486 96.9332 199.123 99.1218C199.03 99.9246 199.317 100.457 199.858 101.158C200.965 102.519 202.402 104.175 203.712 105.409C206.669 108.037 210.159 110.318 213.607 112.245C222.218 116.563 223.764 118.084 223.164 127.878C222.978 128.985 221.939 129.357 221.415 130.269C220.342 132.12 219.404 134.503 218.229 136.379C217.376 137.773 216.336 139.201 215.271 140.528C214.587 141.365 213.852 142.387 214.308 143.486C215.086 145.497 217.764 148.277 220.004 149.849C221.727 151.141 223.291 151.192 225.327 150.905C226.155 150.778 226.84 150.592 227.499 150.17C230.017 148.311 232.282 143.764 233.668 140.655C234.149 139.615 234.132 138.238 235.07 137.477C235.89 136.894 236.929 137.03 237.884 136.954C241.214 136.641 243.208 135.618 244.839 139.489C246.58 144.66 250.636 151.125 256.771 148.328C258.554 147.609 260.21 146.367 261.325 144.863C262.356 143.308 264.426 141.686 263.015 139.835C261.52 137.875 259.872 135.99 258.782 133.768C258.334 132.872 257.911 131.968 257.81 131.013C257.506 128.529 256.23 118.118 255.613 113.107C255.435 111.645 255.292 110.496 255.216 109.862C255.165 109.423 255.241 109.085 255.706 108.755C256.483 108.214 257.523 107.842 258.401 107.412C260.337 106.423 262.5 105.214 264.317 104.133C267.959 101.86 274.119 97.736 275.429 94.5756C276.079 92.7588 273.933 90.0463 272.851 88.5928C270.511 85.8803 270.046 86.5479 267.899 88.7449C263.911 92.1504 256.247 99.4683 251.041 97.3726L251.016 97.3473L250.999 97.3642Z" fill="#29235C" stroke="#29235C" stroke-width="0.845023" stroke-miterlimit="10"/>
<path d="M248.785 86.2605C248.261 86.7084 248.008 87.4774 247.721 88.1365C244.036 96.9923 232.003 98.8514 226.696 90.5617C226.274 89.9533 225.987 89.4294 225.471 89.0322C224.846 88.5252 223.857 88.5505 223.198 88.0266C221.778 86.5563 224.533 85.8296 225.606 85.5507C227.085 85.1282 229.138 84.5113 228.936 86.3788C228.386 88.0435 228.192 88.5759 229.426 90.0631C234.082 95.7924 242.786 93.6714 245.363 86.9619C245.608 86.2943 245.743 85.6437 245.363 85.0521C244.873 84.3423 243.081 83.3029 243.977 82.2636C244.628 81.6636 245.667 82.1368 246.428 82.3565C247.712 82.9311 251.878 82.8889 251.177 84.7648C250.678 85.5253 249.487 85.6183 248.828 86.2183L248.785 86.2521V86.2605Z" fill="#29235C" stroke="#29235C" stroke-width="0.845023" stroke-miterlimit="10"/>
</svg>
