<svg width="59" height="103" viewBox="0 0 59 103" fill="none" xmlns="http://www.w3.org/2000/svg">
<path d="M34.4569 6.03692C34.8033 6.4419 35.0046 6.9452 35.22 7.62639C37.8395 17.4628 38.956 27.332 41.7417 37.1801C42.0647 38.3482 42.4533 39.6474 43.0198 40.6961C43.9444 42.3675 45.2366 43.4232 45.9717 45.1555C47.7203 49.0812 47.6384 53.8566 45.9997 57.7565C45.7586 58.3254 45.4895 58.9807 45.7353 59.573C45.8593 59.8937 46.1121 60.191 46.4235 60.4836C47.1 61.1016 47.8046 61.7852 48.4132 62.5015C51.3136 65.8443 52.6806 69.5429 54.8928 73.2204C55.4054 74.0842 56.0188 74.9035 56.6906 75.7837C57.2571 76.5515 57.9945 77.4902 57.833 78.4336C57.2922 80.6879 54.0594 82.7081 51.6811 83.3823C50.9835 83.5742 50.6652 83.649 50.6722 84.157C50.9344 87.1253 51.6273 91.7837 51.8075 94.1831C51.8777 97.4065 48.6941 98.2282 46.0161 98.8181C44.4922 99.0709 42.4229 99.5086 41.2688 98.2515C39.9392 96.2617 39.1058 91.5425 38.4691 90.0678C38.2748 89.5692 37.9073 89.6137 37.3689 89.6511C36.8726 89.698 36.1259 89.7986 35.3815 89.8875C34.0308 90.1122 32.7526 89.8711 32.8252 91.5261C32.6777 94.3703 33.9489 99.9066 30.5054 100.759C27.4786 101.428 24.1195 101.421 21.4064 99.8012C20.2547 99.0381 19.3651 97.6008 19.3066 96.2056C19.2855 93.9865 20.4583 89.1408 20.6573 87.4039C20.7533 86.6454 20.1891 86.4793 19.4377 86.402C17.3332 86.3669 15.4441 86.0461 13.4333 85.166C12.4619 84.6837 11.7947 84.4379 11.5863 83.7076C11.5301 83.3611 11.6894 82.9398 11.9141 82.3242C12.806 79.9061 14.1403 77.0782 14.9994 74.5641C16.0996 71.3875 16.8299 67.9838 18.8454 65.2239C19.5805 64.1916 20.463 63.2342 21.2027 62.2136C21.8839 61.3498 21.6311 60.4228 20.9921 59.6643C19.5852 57.8244 18.4358 55.7199 18.1245 53.4118C17.8974 52.0658 18.2673 50.6097 18.0168 49.3269C14.063 41.7471 8.37932 35.3893 4.05102 28.067C2.81503 25.9462 1.51117 23.2331 1.72419 20.7752C2.28366 15.8148 7.16206 16.5521 7.73558 14.5741C7.82921 14.2604 7.81985 13.8789 7.79879 13.5394C7.5647 9.87125 8.27866 5.83789 10.8958 3.3425C13.8476 0.311047 18.8665 0.994614 22.5043 2.20017C23.9463 2.6309 25.0839 3.8716 26.4557 4.34446C27.2024 4.51769 28.1177 4.18531 28.9627 4.19701C30.7488 4.22042 33.2372 4.73068 34.4287 6.01349L34.4522 6.04161L34.4569 6.03692ZM37.9916 31.7422C38.214 31.5128 38.0993 30.9019 38.0103 30.5226C36.7228 24.7289 36.0089 18.7994 34.7424 13.0034C34.4311 11.538 34.0168 9.68866 33.5626 8.32626C33.3637 7.73636 33.1623 7.29167 32.7831 6.95225C31.9193 6.19146 30.3298 5.88474 29.0868 6.07201C28.3682 6.1914 28.628 6.91705 28.8317 7.39459C29.3163 8.67272 30.159 10.4519 29.5855 11.332C28.7966 12.0647 28.1201 10.7328 27.8438 9.97197C27.5372 9.1667 27.1954 8.39656 26.76 7.69898C25.4725 5.44704 23.2323 4.15485 20.8095 3.46194C16.7316 2.1487 11.989 2.97966 10.4417 7.20497C9.75578 9.05661 9.65045 11.3975 9.69259 13.3639C9.63406 15.576 10.7928 17.5447 11.584 19.5625C11.9164 20.4825 12.2371 21.0982 11.9632 21.6858C11.7291 22.1306 11.0456 22.2359 10.5985 21.7537C10.3738 21.5196 10.2169 21.2222 10.0788 20.9179C9.60829 19.8809 9.1635 18.3664 8.59701 17.7132C8.0586 17.0953 7.37745 17.2334 6.53473 17.5799C0.481189 20.3187 4.95698 26.1405 7.24871 29.9491C9.51001 33.4979 12.2511 37.7068 14.3439 39.9166C14.784 40.3614 15.2873 40.4503 15.7672 39.8791C20.2359 33.3153 29.143 30.9674 36.779 31.8827C37.1629 31.9366 37.7598 32.0044 37.9799 31.7586L37.9963 31.7398L37.9916 31.7422ZM35.5758 33.629C35.0701 33.4558 34.0097 33.5657 33.3356 33.5353C32.8861 33.5821 31.7952 33.3762 31.8397 33.8397C32.1019 34.9399 33.0312 37.6108 33.3824 38.7813C33.4386 38.9428 33.4971 39.1066 33.6047 39.2166C33.7429 39.3594 33.9746 39.3899 34.3819 39.3993C34.9297 39.4063 35.7397 39.4016 36.3179 39.404C36.8539 39.3595 37.6966 39.5818 37.397 38.8163C37.1652 38.0626 36.5988 36.3116 36.2102 35.0803C36.044 34.6308 35.8684 33.746 35.5968 33.6407L35.5758 33.629ZM29.8219 33.8373C28.188 33.6172 26.5142 34.357 24.9763 34.8462C24.4472 35.0428 23.6887 35.2231 24.0656 35.9534C24.6415 37.2175 25.4655 38.9287 26.0577 40.1998C26.6125 41.2322 26.4182 41.6372 27.5489 41.272C28.7662 40.9068 30.2456 40.4948 31.4815 40.1062C31.9333 39.9494 31.9474 39.8043 31.7976 39.2916C31.6993 38.9569 31.5986 38.6361 31.4933 38.285C31.2147 37.365 30.8963 36.3186 30.6201 35.4127C30.4001 34.7689 30.3017 33.9988 29.8453 33.8466L29.8172 33.8373H29.8219ZM40.4659 40.3964C41.0067 40.4058 40.2201 38.1352 40.1428 37.66C39.986 37.0724 39.8175 36.4778 39.6372 35.9043C39.3985 35.1529 39.2182 34.5817 38.7337 34.2306C37.9354 33.6898 37.6358 34.1627 37.9588 34.9797C38.6119 36.4826 38.8062 39.8815 40.4448 40.3964H40.4659ZM22.2842 36.3304C21.7692 36.4311 20.8937 37.1005 20.3343 37.4048C19.8099 37.7887 19.1545 38.0111 19.3628 38.6595C20.1119 40.1202 21.6592 42.7351 22.3989 43.8798C22.5324 44.0109 22.6752 43.9967 22.9163 43.8493C23.3329 43.5777 23.9134 43.1026 24.3395 42.7748C24.899 42.3301 25.1331 42.1592 24.7141 41.3586C24.1382 40.0688 23.5296 38.7017 22.956 37.4189C22.75 36.9858 22.5159 36.2952 22.3029 36.3374H22.2819L22.2842 36.3304ZM17.6025 40.1998C17.2068 40.4363 16.9797 41.0871 16.7972 41.5295C16.4835 42.2575 16.5116 42.7888 16.947 43.5566C17.2841 44.2332 17.6399 44.9378 18.0261 45.5886C18.3 46.0193 18.5903 46.5694 19.0023 46.7543C19.6929 46.9627 20.5192 45.8789 20.7813 45.3147C21.0178 44.8395 20.5403 44.1654 20.1798 43.524C19.7303 42.7515 19.2176 41.897 18.7471 41.1572C18.3422 40.5205 17.984 40.0313 17.6258 40.1882L17.6001 40.1998H17.6025ZM48.5115 65.2825C47.6267 64.1541 46.6178 63.0236 45.548 62.0708C44.429 61.1134 42.245 59.9031 43.4669 58.199C46.2854 55.1769 45.864 47.9365 43.6191 44.6663C42.7342 43.4841 41.3507 42.8005 39.9696 42.1919C36.7275 40.8225 33.2607 41.1408 29.9507 42.2504C23.9861 44.1114 17.4737 48.4047 20.2875 55.0645C20.9429 56.9021 22.2351 58.2715 23.333 59.8539C24.185 61.0946 23.9954 61.7618 23.0801 62.8269C21.8371 64.4304 20.2641 65.8419 19.3605 67.6631C17.4643 71.4039 16.5631 76.1769 14.7091 80.0207C14.4305 80.8564 13.0916 82.8836 14.0256 83.4548C15.4067 84.1781 18.4405 84.6229 19.9363 84.4777C20.4537 84.4192 20.8094 84.1524 20.9522 83.628C21.1582 82.9281 21.2004 81.9684 21.3806 81.2123C21.493 80.3064 22.4293 78.9977 23.169 80.0441C24.3816 83.1154 19.6133 95.075 21.4579 97.3901C23.0076 99.4337 27.1627 99.6701 29.4872 98.9538C30.5312 98.6167 30.8425 97.6967 30.8308 96.7042C30.9057 94.6489 30.7231 91.0884 31.21 89.4077C31.3809 88.5954 31.8725 88.4104 32.5982 88.3449C34.0284 88.1693 37.2027 87.776 38.5979 87.6098C38.7079 87.5981 38.8086 87.5888 38.8975 87.5841C39.8479 87.4366 39.9486 88.5767 40.2178 89.2696C40.9341 91.5426 41.7815 95.1218 42.458 96.4678C43.1369 98.179 47.334 96.51 48.865 96.009C49.3144 95.7913 50.1221 95.6532 50.0589 95.192C49.8248 92.3923 46.4 70.7532 46.4656 67.8364C46.9431 67.4829 47.9006 67.4033 47.9685 68.2437C48.439 70.629 49.4292 75.8516 50.0471 79.0258C50.2485 79.7655 50.2415 81.1209 50.8267 81.2543C52.2289 81.5516 53.6474 80.6012 54.7125 79.7772C55.8642 78.8573 56.0984 78.1433 55.2276 77.0197C52.5917 73.389 51.1427 68.857 48.5303 65.3106L48.5045 65.2755L48.5115 65.2825Z" fill="#F9F7F0" stroke="#F9F7F0" stroke-width="2" stroke-miterlimit="10"/>
<path d="M43.5118 49.1014C43.8582 49.7522 42.6948 50.3818 42.2219 50.9062C41.508 51.88 41.1802 53.2004 40.3773 54.1601C36.2339 59.8649 28.0572 59.9047 24.4616 53.6147C24.0285 53.0388 22.9073 52.7485 22.6919 52.1984C22.5491 51.7162 23.05 51.3674 23.4269 51.1403C24.3469 50.6089 25.8872 50.1993 26.3765 50.5387C26.5918 50.6815 26.6012 50.9742 26.5356 51.3229C26.449 51.7747 26.3109 52.3365 26.4444 52.8468C28.5582 57.5309 34.9535 57.5075 38.2027 53.6942C38.6591 53.1816 39.1015 52.594 39.448 52.0112C39.7195 51.5242 39.9419 51.1263 39.9185 50.6301C39.881 50.1572 39.4456 49.8833 39.1624 49.476C38.8698 49.1201 38.7504 48.556 39.1811 48.2751C39.338 48.1604 39.5393 48.1065 39.7429 48.1018C40.4218 48.0925 41.4986 48.3383 42.3601 48.5139C42.7697 48.6005 43.2683 48.7316 43.4977 49.0734L43.5118 49.0991V49.1014Z" fill="#F9F7F0" stroke="#F9F7F0" stroke-width="2" stroke-miterlimit="10"/>
</svg>
