<?xml version="1.0" encoding="utf-8"?>
<svg fill="currentColor" height="106" viewBox="0 0 103 106" width="103" xmlns="http://www.w3.org/2000/svg">
<path d="M73.1644 32.3355C74.7395 33.6392 85.0845 24.9227 86.7972 23.3362C88.2384 22.1167 89.0298 20.0943 90.8916 19.4635C95.1351 18.4428 99.8297 25.2705 101.225 29.2503C103.465 34.4113 97.318 38.8192 92.7992 42.4243C88.6207 45.6815 83.8267 47.8875 79.3232 50.6209C77.8857 51.4582 77.125 52.9605 77.232 54.6082C77.3085 57.8769 77.9852 61.0883 78.4898 64.3454C79.8164 71.4524 78.4057 77.2403 83.5744 83.575C84.2281 84.4428 84.9431 85.2916 85.6962 86.0753C86.7513 87.1725 87.9862 88.2965 87.6115 89.8792C87.2789 91.332 86.0593 92.4023 85.2718 93.5951C84.2396 95.1396 83.5477 96.6842 82.0605 97.8349C79.805 99.6317 77.1671 101.367 74.3381 101.925C70.6642 102.648 67.0896 101.887 64.4441 99.2569C62.6397 97.5786 61.1372 95.4379 60.0362 93.2626C59.3634 91.959 58.767 90.594 58.1821 89.2559C57.7234 88.1434 57.1881 87.1381 55.7736 87.1189C54.2979 87.1342 52.6043 87.2069 51.4268 87.9218C50.6699 88.4341 50.2952 89.3402 49.9015 90.1813C46.759 97.0244 44.0065 103.963 36.1005 104.609C32.8127 104.965 30.236 103.944 27.5676 101.822C24.1116 98.9931 18.9429 94.2642 20.4262 89.474C20.7741 88.5259 21.4584 87.7842 22.1007 87.0196C23.0335 85.9416 23.9549 84.745 24.7386 83.5789C26.134 81.5336 27.514 79.366 28.6915 77.0072C31.1764 71.9953 32.6445 66.1766 29.2726 61.7267C27.4681 59.7272 24.6774 58.5689 22.3071 57.2882C19.7304 56.0075 17.7654 54.7459 15.5022 53.1785C10.0544 49.2829 3.001 44.0415 1.7547 38.7734C1.44122 36.5522 2.55749 34.6638 3.72351 32.6682C5.44385 29.973 7.52357 27.3197 9.85178 25.24C12.7993 22.5563 15.0549 23.1679 17.6469 25.7599C18.9467 26.8762 26.7227 35.1837 27.7893 34.1515C27.9575 33.7577 27.3687 32.4387 26.8756 31.181C24.7462 26.0391 24.3906 20.3962 26.5621 15.2887C32.5068 1.59854 55.6398 -3.24122 67.5178 5.12732C75.16 10.6821 75.9093 21.6044 73.409 30.3208C73.2714 30.8828 72.9159 31.8959 73.1414 32.3049L73.1568 32.3316L73.1644 32.3355ZM68.4583 35.7723C67.7701 35.0842 68.466 33.6966 68.8788 32.8517C73.6805 24.7049 72.763 12.5133 64.9679 7.13439C62.9838 5.7237 60.365 4.80986 57.9259 4.4008C38.1687 1.12067 18.465 17.162 32.9732 35.4512C34.5865 37.7871 33.78 39.7902 30.9433 39.1824C28.4966 38.5363 25.5872 36.6784 23.3125 35.1186C22.1503 34.3081 21.187 33.5436 20.2083 32.5573C18.6944 31.0625 16.737 28.8681 15.116 27.6677C13.476 26.2799 11.6907 27.4306 10.2915 28.9521C8.13531 31.2651 5.18777 35.2295 4.74048 37.9132C4.62197 38.9034 4.97746 39.5494 5.64266 40.4172C6.99982 42.084 8.76609 44.1179 10.3717 45.6395C14.0036 48.8737 18.2892 51.6721 22.5251 54.0347C33.1033 59.3411 35.0033 61.2067 34.2616 73.2376C34.0361 74.5948 32.7591 75.0535 32.1169 76.1775C30.798 78.456 29.6434 81.373 28.2021 83.6859C27.1508 85.3986 25.8816 87.1571 24.5703 88.7857C23.7292 89.8141 22.8271 91.0643 23.3852 92.4215C24.3448 94.8911 27.6288 98.3051 30.3813 100.232C32.4954 101.822 34.4145 101.883 36.9148 101.535C37.9355 101.379 38.7689 101.157 39.5794 100.633C42.6722 98.3509 45.4515 92.7694 47.1566 88.9464C47.753 87.6696 47.7224 85.9722 48.8807 85.0432C49.89 84.3283 51.1669 84.4888 52.3406 84.4008C56.4274 84.0185 58.874 82.7608 60.8811 87.5128C63.0143 93.859 67.9957 101.803 75.5346 98.3738C77.729 97.4945 79.7591 95.9615 81.1316 94.1189C82.3931 92.2074 84.9392 90.2155 83.2112 87.9485C81.3724 85.5362 79.3538 83.2234 78.0119 80.4976C77.4652 79.3927 76.9377 78.284 76.8154 77.1142C76.4407 74.0596 74.8733 61.2718 74.1202 55.1283C73.9022 53.3315 73.7226 51.9244 73.6346 51.1445C73.5735 50.6017 73.6652 50.1849 74.2349 49.7835C75.1868 49.1183 76.4675 48.6674 77.5417 48.136C79.9234 46.9241 82.5728 45.4407 84.8016 44.1103C89.2783 41.3233 96.8402 36.2541 98.4458 32.3738C99.2486 30.1373 96.6109 26.8073 95.2766 25.0297C92.4017 21.6998 91.8321 22.5141 89.198 25.2208C84.2969 29.4032 74.8886 38.3912 68.4889 35.8145L68.4545 35.78L68.4583 35.7723Z" fill="currentColor" stroke="currentColor" stroke-miterlimit="10" stroke-width="2"/>
<path d="M65.7407 22.1308C65.0946 22.6813 64.7848 23.6294 64.4293 24.4399C59.9029 35.3163 45.1308 37.5985 38.6126 27.4179C38.1003 26.6685 37.7372 26.0264 37.1064 25.5409C36.338 24.9216 35.1261 24.9521 34.3118 24.3098C32.5723 22.5015 35.9556 21.6109 37.2708 21.2706C39.0905 20.7507 41.6061 19.9937 41.3576 22.2913C40.6809 24.3328 40.4477 24.9903 41.9539 26.8177C47.6693 33.852 58.3585 31.2486 61.5277 23.01C61.8259 22.1843 61.9903 21.3967 61.5277 20.6627C60.9237 19.791 58.7216 18.5181 59.8264 17.2335C60.6254 16.4995 61.9062 17.0768 62.839 17.3444C64.4141 18.0478 69.5292 17.9942 68.6729 20.2957C68.0574 21.2361 66.6008 21.347 65.7903 22.081L65.7368 22.1269L65.7407 22.1308Z" fill="currentColor" stroke="currentColor" stroke-miterlimit="10" stroke-width="2"/>
</svg>