<?xml version="1.0" encoding="utf-8"?>
<svg fill="currentColor" height="117" viewBox="0 0 103 117" width="103" xmlns="http://www.w3.org/2000/svg">
<path d="M69.9387 46.9581C71.7448 49.029 73.4229 51.3817 76.241 49.6524C80.4382 46.924 86.0658 45.8778 90.5961 48.4098C102.244 55.2843 104.08 72.5688 99.1102 84.012C95.9505 90.9889 90.2332 96.9623 83.3502 100.374C81.3263 101.446 78.9779 101.903 76.9412 102.91C74.977 103.85 74.2811 106.023 72.9361 107.581C70.5877 110.25 65.5919 111.134 62.1077 111.732C57.9788 112.261 55.4254 111.207 54.0078 107.15C52.855 104.131 52.0437 100.997 51.0446 97.9957C50.5706 96.4116 49.5843 94.8445 47.7568 94.7804C46.7961 94.6993 45.8055 94.8615 44.849 94.9854C43.1112 95.233 41.2794 95.468 40.481 96.9112C39.7039 98.3117 39.9942 100.476 39.9984 102.197C40.0497 106.258 40.8994 111.441 37.1847 114.123C32.9063 116.971 23.2393 115.78 19.0762 113.013C13.4784 109.033 15.703 102.163 16.7021 96.5098C16.9797 94.5628 17.9191 91.9368 17.0651 90.2374C16.3648 88.9095 14.4776 88.7088 12.9533 88.5124C10.3273 88.1964 7.86362 87.812 5.36149 86.7744C3.27354 86.0059 1.07876 84.204 1.86441 81.7574C3.47414 76.7915 6.25386 69.8318 8.53396 63.4014C9.7039 60.2802 10.6817 57.1587 12.1377 54.1656C13.3247 51.7232 14.8448 49.5116 16.5143 47.3638C17.428 46.1469 18.5852 44.7977 18.8798 43.3331C19.1531 42.0778 18.5894 40.7414 17.7739 39.4092C9.85756 28.7815 12.458 14.4647 22.7526 6.44169C31.4844 -0.445574 46.5442 -0.67623 56.2623 5.07525C65.5492 10.5962 68.3331 22.4748 65.1777 33.0469C64.6696 34.9427 63.5979 37.0266 63.9181 38.9907C64.2384 40.7883 65.9549 42.3851 67.2914 43.9521C68.1539 44.9427 69.0206 45.9078 69.8874 46.8856L69.9429 46.9496L69.9387 46.9581ZM69.0377 50.246C67.065 47.5773 64.6099 45.1649 62.0437 43.0214C60.9805 42.0607 59.7892 40.9377 59.6611 39.4304C59.5287 37.3382 61.3008 35.6516 61.9327 33.7643C63.6235 28.696 64.0206 22.9573 62.5347 17.7182C57.3127 1.41167 30.9079 0.0155606 20.6731 13.3716C16.6039 18.3204 14.9942 25.3057 17.2401 31.3988C18.0471 33.6362 19.405 35.5918 20.8183 37.5901C21.9157 39.1742 23.5852 41.3732 23.4016 43.0598C23.2308 44.7293 21.8559 46.3049 20.7799 47.6755C19.1317 49.7208 17.2871 51.7533 15.972 53.9907C14.6398 56.2878 13.867 58.8241 12.8635 61.3305C10.6219 67.1418 7.99592 73.8625 6.1428 78.7558C5.71155 79.9855 4.88328 81.5909 5.48106 82.8036C5.89523 83.5294 6.762 83.8283 7.60316 84.0845C8.76456 84.4304 10.0454 84.6824 11.2581 84.8745C13.1752 85.1478 15.6475 85.6216 17.1419 84.5328C18.9225 83.2689 18.6748 80.5746 19.6313 78.6105C20.6987 76.4414 22.4964 77.1289 22.5134 79.4175C22.1718 87.4448 19.9515 95.3483 18.9652 103.329C18.6791 105.404 18.5894 107.833 20.1479 109.413C23.0471 112.304 30.2034 113.252 34.2683 111.313C36.4075 110.114 36.5825 107.27 36.5697 105.041C36.7277 101.352 36.0104 97.1246 37.8081 94.1399C40.007 91.0571 46.527 92.8377 48.5381 90.1947C49.4177 88.1836 47.5092 85.9334 47.1163 83.9394C45.1522 77.4621 48.2222 69.9811 53.931 66.3945C55.8951 65.1135 58.2008 64.503 60.4254 63.8113C63.2606 62.9872 65.3869 61.8343 65.3827 58.8839C65.4552 57.9744 65.434 56.7277 66.0104 56.0616C66.8473 55.088 68.2264 55.9974 69.2811 55.9077C70.4126 55.8351 70.8225 54.6182 70.5791 53.3458C70.3614 52.2228 69.7465 51.228 69.089 50.31L69.0377 50.2416V50.246ZM81.6081 50.6815C75.4808 52.334 72.8336 59.4774 67.6927 63.0299C66.7491 63.7344 65.7542 64.3706 64.7124 64.9171C62.2316 66.2493 59.3665 66.9282 56.8601 68.3416C53.8285 69.9983 51.2623 72.6499 50.1692 75.9718C46.2751 87.5943 61.8772 99.7976 72.4792 99.5244C94.8959 99.7677 108.999 62.825 87.983 51.2153C85.9933 50.404 83.7217 50.169 81.685 50.66L81.6038 50.6815H81.6081ZM54.3024 95.5276C52.6116 95.4892 56.2751 104.712 56.5398 105.681C57.0821 107.193 58.0684 108.841 59.8319 108.969C62.3938 109.153 65.1692 108.175 67.9019 107.223C69.5159 106.71 72.7013 105.173 70.703 103.26C69.1829 102.044 67.001 102.009 65.2162 101.339C62.2486 100.348 59.5928 98.8282 57.0693 97.0775C56.2665 96.5652 55.2248 95.6643 54.3452 95.5276H54.3024Z" fill="currentColor" stroke="currentColor" stroke-miterlimit="10" stroke-width="2"/>
<path d="M59.6998 20.8997C59.9475 22.1465 58.3463 23.3079 57.5265 24.4822C56.3779 26.0022 55.6989 27.7742 54.6272 29.3668C48.2139 39.4608 33.0133 40.7543 25.7417 31.1088C24.6999 29.5801 22.9023 28.1926 21.9032 26.7964C21.1986 25.699 22.0995 24.5675 23.1072 24.0552C24.4693 23.3165 26.3353 22.9066 27.2405 23.7264C28.4744 24.9945 27.7785 27.4582 28.8673 28.9228C34.8622 37.5393 46.775 34.909 51.8903 26.8902C53.0944 25.178 52.9791 23.0773 52.2404 21.2285C51.6213 18.9142 54.2174 19.0252 56.0619 19.2814C57.2916 19.5205 59.1149 19.5547 59.687 20.8442L59.6998 20.8997Z" fill="currentColor" stroke="currentColor" stroke-miterlimit="10" stroke-width="2"/>
<path d="M73.8749 83.8719C74.5666 82.5867 74.7032 81.0709 75.2497 79.7259C75.839 78.1674 76.8595 76.9333 78.1319 75.853C80.301 74.2262 82.1412 71.9675 84.5196 70.7548C86.3727 69.9094 89.622 69.0342 91.1293 70.7934C92.47 72.4757 90.6596 75.9813 89.9935 78.1674C89.2463 80.3878 91.2617 82.3176 91.2873 84.5976C91.3087 87.245 89.0541 89.3629 86.6374 90.0803C82.1498 91.2331 80.4077 90.0931 77.2865 94.2519C75.8774 95.8787 73.9645 97.228 71.868 97.2237C67.3463 97.0956 66.9833 92.0657 69.2805 88.8633C70.4632 86.9419 72.7091 85.883 73.8321 83.9445L73.8706 83.8761L73.8749 83.8719ZM87.1711 73.731C86.9704 73.62 86.6673 73.6413 86.3171 73.7779C85.2497 74.2305 84.3573 75.1871 83.435 75.9087C81.2873 77.7404 78.7681 78.5217 78.0977 81.374C77.6622 82.8727 77.5683 84.5891 76.6759 85.9042C75.301 87.9239 72.389 89.4697 71.3429 91.5405C70.5572 93.0094 71.599 94.3031 73.0678 93.3809C74.8056 92.2024 75.792 90.0034 77.6878 88.9786C80.1301 87.386 83.4179 87.9239 85.9798 86.9974C86.9704 86.6216 87.9226 85.7463 87.803 84.6147C87.7176 83.4448 86.505 82.3476 86.0225 81.1649C85.2625 79.521 86.0908 77.7959 86.8466 76.3015C87.1839 75.55 87.8543 74.3032 87.2096 73.7567L87.1711 73.7352V73.731Z" fill="currentColor" stroke="currentColor" stroke-miterlimit="10" stroke-width="2"/>
<path d="M67.8889 72.4228C68.8368 73.597 68.5933 75.2793 68.7086 76.8336C68.7684 77.8284 69.0161 78.7422 69.2937 79.767C72.9486 91.0607 49.6523 88.1485 56.7402 77.5508C58.1023 75.245 59.4645 73.1401 62.0306 72.1196C63.9393 71.3767 66.5609 70.8942 67.8418 72.3673L67.8889 72.4228ZM64.3833 75.3689C63.1066 74.5705 61.2449 76.9274 60.4935 77.8881C59.6224 79.1264 58.666 80.7617 59.3363 82.2732C60.2031 83.9427 63.7173 84.3229 65.3697 83.1316C66.8342 81.6969 65.1732 79.5876 65.075 77.9096C64.9213 76.9104 64.8914 75.8385 64.4217 75.4073L64.3791 75.3689H64.3833Z" fill="currentColor" stroke="currentColor" stroke-miterlimit="10" stroke-width="2"/>
<path d="M77.7825 61.4879C80.9208 63.5631 80.0029 69.0924 77.4154 71.3298C73.3291 74.3614 67.4282 70.8389 69.4948 65.5699C70.5537 62.3547 74.4563 59.5963 77.7142 61.4452L77.7825 61.4879ZM75.212 64.4854C74.183 64.4512 73.0942 65.4118 72.774 66.4195C72.2701 67.6279 72.932 69.4639 74.4436 69.0967C76.1301 68.7338 77.5264 64.8311 75.2847 64.4895H75.2078L75.212 64.4854Z" fill="currentColor" stroke="currentColor" stroke-miterlimit="10" stroke-width="2"/>
<path d="M85.5528 59.2811C90.8517 57.6671 93.2856 67.1077 87.769 67.6884C83.2173 68.3459 80.95 60.8522 85.4717 59.3065L85.5528 59.2811ZM86.9662 62.5089C85.9243 62.3509 86.0012 63.3629 86.774 63.8155C87.2096 64.1058 87.675 64.1059 87.5768 63.6276C87.4829 63.2732 87.3591 62.7097 87.0303 62.5304L86.9662 62.5089Z" fill="currentColor" stroke="currentColor" stroke-miterlimit="10" stroke-width="2"/>
</svg>