<?xml version="1.0" encoding="utf-8"?>
<svg fill="currentColor" height="111" viewBox="0 0 103 111" width="103" xmlns="http://www.w3.org/2000/svg">
<path d="M95.763 30.918C94.8552 32.0195 92.8258 31.5757 91.6356 31.6645C91.0909 31.7129 90.6391 31.8943 90.1751 32.1808C86.0276 34.9848 78.378 43.1953 74.0207 47.0282C69.7279 52.2045 76.284 61.8754 79.7538 66.378C80.1814 66.9307 80.6252 67.5077 80.948 68.1008C83.4414 72.45 75.6345 77.9894 71.7572 78.9577C70.8979 79.2643 69.0581 79.3168 69.0339 80.2851C69.0783 81.9392 69.4333 83.545 69.7319 86.1433C70.0788 88.7738 70.4702 91.7595 70.7809 94.1157C70.9302 95.2414 71.0592 96.2258 71.1561 96.9561C71.2892 97.9486 71.3538 98.4528 71.0794 99.3323C70.6034 100.732 69.7198 102.802 68.2189 103.585C65.2252 105.158 59.0039 106.506 55.3446 106.268C52.0766 105.937 51.6892 101.334 50.4627 98.8563C49.801 97.3595 48.4172 97.9849 47.2754 98.5618C45.8633 99.2679 44.4108 100.083 42.9059 100.603C41.5221 101.124 39.9486 101.16 39.1457 101.935C38.3065 102.713 38.2945 103.956 38.0322 105.013C37.7377 106.32 37.0316 107.482 35.9423 108.269C31.7624 111.271 18.872 110 16.6046 105.667C15.6726 104.218 14.8737 102.528 14.8818 100.777C14.8535 97.2949 16.9959 93.1596 15.5676 89.7181C14.7002 87.9993 13.5584 86.1432 12.2472 84.8925C10.706 83.7185 8.9187 83.6178 6.63917 82.9601C4.67029 82.4397 1.48299 81.4431 1.71296 79.212C3.14927 75.016 8.43457 61.1371 11.0934 53.8708C11.864 51.6397 12.6991 50.0944 14.1274 47.9883C15.2893 46.2938 16.6287 44.7042 17.8996 43.0944C18.287 42.5861 18.6582 41.9727 18.755 41.3756C18.9406 40.4275 18.4564 39.4471 17.7343 38.4425C12.2029 30.8978 10.7746 22.3888 15.7372 14.001C22.1562 2.68397 34.9941 -0.547736 47.5296 2.79693C61.5659 6.00442 66.7261 21.8807 60.989 34.8478C60.6137 35.7152 60.2426 36.8086 60.4161 37.6801C61.1423 40.6334 64.7089 38.6846 66.2501 37.4419C70.329 34.3676 75.1584 29.7843 78.3457 26.1612C79.1889 25.1405 80.1895 24.1076 80.5526 22.9416C80.831 22.0823 80.601 21.1342 80.722 20.1821C80.835 18.3988 82.6707 18.0597 84.0425 17.6321C84.8212 17.3618 85.257 16.6558 85.6282 15.9578C85.9146 15.4494 86.2414 14.9251 86.7175 14.5821C87.4114 14.0495 88.3394 13.9729 89.1584 13.7752C89.7152 13.6461 90.1831 13.3676 90.6068 12.9884C92.2609 11.3302 93.8788 10.5072 95.997 12.1533C97.0541 12.9037 98.3492 13.9243 99.3296 14.7232C100.298 15.5301 101.343 16.4379 101.629 17.6967C101.956 19.016 101.081 20.1256 100.774 21.4167C100.451 22.6512 100.758 24.1157 99.9469 25.1849C99.0714 26.3872 97.0863 26.4478 96.5982 27.8962C96.2956 28.8605 96.4933 30.0628 95.8034 30.8818L95.763 30.93V30.918ZM57.9711 41.7024C58.1486 40.7745 57.0432 40.0563 56.5711 39.2413C55.4576 37.7606 56.2363 36.1792 57.3861 35.0253C61.4166 30.555 60.4322 17.1036 56.8737 12.3509C50.2893 3.41429 33.3077 2.49445 24.9359 8.76015C14.8858 16.1717 13.1591 28.5174 21.5833 37.7888C23.3665 39.9554 23.8264 41.2425 22.0432 43.3647C19.3884 46.8022 16.3382 50.1186 14.6558 54.133C12.9452 58.6114 8.18437 71.6391 5.69504 78.3889C5.37227 79.3774 6.67145 79.5225 7.75675 79.9905C8.95099 80.398 10.1734 80.7208 11.416 80.9306C13.8691 81.2171 17.5204 82.1289 18.3071 79.107C20.0138 71.7358 19.8 63.925 21.5711 56.6022C21.9665 55.2587 22.5717 52.2004 24.3348 52.3779C24.9843 52.5353 25.3717 53.4591 25.8437 53.9433C26.461 54.6211 27.4172 54.4396 28.2806 54.3629C31.8431 53.8061 38.2582 54.8228 40.1342 52.152C41.8974 49.3399 43.842 45.7371 47.5699 45.4305C49.2201 45.253 51.0478 45.3456 52.8553 44.7122C53.8236 44.3895 54.7071 43.9014 55.6149 43.4213C56.4379 42.9613 57.5999 42.5457 57.963 41.7509L57.9792 41.7066L57.9711 41.7024ZM98.2483 17.8783C98.0224 16.8939 96.8362 16.3008 95.6823 15.4737C94.9319 14.9775 93.9031 14.2713 93.0881 14.9814C92.6766 15.3163 92.3658 15.7964 92.0108 16.208C90.7802 17.7209 88.3111 18.9797 86.5762 20.2102C84.7405 21.2471 84.4904 22.5423 83.7924 24.3579C81.4564 28.4691 76.4051 32.8586 72.2777 36.635C67.7549 40.6817 61.6465 44.1554 55.9901 46.8989C53.9203 47.9277 51.6368 47.9964 49.3532 48.1416C46.5895 48.2747 44.7821 50.1751 43.4789 52.4587C42.4743 54.0523 41.3365 55.7145 39.5129 56.3359C35.4945 57.514 29.0916 56.9612 25.6098 57.9578C24.5406 58.2684 24.3671 58.5631 24.2339 59.4668C23.7215 62.8639 21.6356 76.7427 20.9901 81.0315C20.8892 83.1133 19.6709 83.3959 17.8594 84.0535C17.2058 84.2996 16.661 84.59 16.4754 85.0176C16.1849 85.8608 16.8305 86.6315 17.2542 87.3698C22.4668 95.7173 30.8385 100.894 40.2714 98.3682C60.3958 93.4702 53.6339 70.3157 63.5308 61.0523C64.5798 60.1445 65.9393 59.5998 67.299 59.1358C69.1468 58.5912 70.212 57.6309 70.0304 55.4966C69.978 53.9272 69.5705 52.2287 69.4777 50.6593C69.1832 47.4034 71.4022 44.8211 73.6656 42.6465C77.688 38.7773 82.2632 34.2063 86.8546 30.3774C87.7664 29.6472 88.3717 29.1145 89.2714 28.6425C90.3567 28.1059 91.5993 27.9163 92.3982 26.9762C93.3463 25.7376 94.4074 24.5515 95.6218 23.5549C96.457 22.7238 96.6223 21.7434 97.167 20.6218C97.518 19.7342 98.337 18.9111 98.2523 17.9307L98.2443 17.8783H98.2483ZM72.1768 60.782C71.7734 60.5157 71.1561 60.6488 70.2725 60.9918C68.9532 61.5768 67.2304 62.0448 66.2016 62.767C65.8667 63.0897 65.9959 63.5538 66.0564 63.9815C66.4558 66.1521 67.5129 71.9093 67.9324 74.1566C68.1301 76.0165 69.7682 76.2667 71.5353 75.7341C73.7341 74.9837 76.6552 73.2207 77.7082 71.0662C78.1117 69.8155 77.1959 68.6413 76.3405 67.2978C75.2068 65.6194 73.9319 63.9491 73.0846 62.1375C72.8546 61.6736 72.5924 61.0604 72.2172 60.8062L72.1768 60.778V60.782ZM67.9688 100.103C68.3117 99.522 68.227 98.6344 68.0858 97.9163C67.7469 96.2137 67.4685 94.4868 67.2506 92.768C66.3509 85.7882 66.012 78.4332 64.8339 71.5502C62.3406 57.982 59.4276 83.4805 57.5959 85.7964C56.438 88.5479 54.6789 91.0535 53.2426 93.6437C52.2824 95.2696 52.4518 96.2862 53.2305 98.0695C53.7751 99.3404 54.457 101.213 55.0541 102.362C55.7077 103.714 57.0512 103.661 58.3261 103.5C61.0494 103.185 63.672 102.221 66.2501 101.321C66.8956 101.087 67.6299 100.712 67.9405 100.16L67.9688 100.107V100.103ZM19.6022 94.6925C19.1382 94.6724 18.868 96.133 18.7227 96.9803C18.4363 99.1065 17.593 101.588 18.5936 103.54C20.1065 106.994 36.3941 109.391 35.1353 103.177C34.6593 102.052 33.3763 101.866 32.1175 101.596C31.0443 101.37 30.0155 101.075 29.027 100.708C25.9729 99.5785 23.3464 97.7629 20.966 95.5036C20.5786 95.1768 20.1267 94.6764 19.6345 94.6844H19.5982L19.6022 94.6925Z" fill="currentColor" stroke="currentColor" stroke-miterlimit="10" stroke-width="2"/>
<path d="M56.7285 20.0851C57.5032 21.5456 54.7597 22.8771 54.0617 24.1924C53.0854 25.6811 52.4035 27.4886 51.3182 28.9693C45.9522 36.4332 35.4824 38.7694 28.2969 32.9071C26.4006 31.5434 25.1782 29.3002 23.6975 27.5613C23.0156 26.8351 21.9262 26.4759 21.317 25.8425C20.0219 24.5514 22.1118 23.4783 23.2254 23.1233C24.7908 22.627 26.8485 21.7635 27.6433 22.986C28.1275 23.9583 26.8565 25.1889 27.0018 26.2702C27.5021 28.1462 29.6646 29.7399 31.1291 30.918C37.4554 35.933 47.5983 31.0713 50.2772 24.1924C51.6167 21.5376 47.5418 20.416 49.2807 18.9474C50.8179 18.0598 52.8715 18.8022 54.8 19.0968C55.4859 19.238 56.3049 19.488 56.7043 20.0367L56.7326 20.0812L56.7285 20.0851Z" fill="currentColor" stroke="currentColor" stroke-miterlimit="10" stroke-width="2"/>
<path d="M36.1159 62.807C38.8876 62.3349 42.0184 62.6376 44.1971 64.4935C46.4524 66.6157 47.9734 70.1177 47.2553 73.1759C45.6253 82.2255 33.9694 87.4059 28.0628 79.8168C26.1988 77.5131 25.6783 74.5234 26.4409 71.7315C27.5827 67.3621 31.5769 63.5654 36.0391 62.819L36.1159 62.807ZM37.1003 65.8772C32.5977 66.6842 27.1873 72.3406 29.9228 76.94C32.1055 80.6317 37.6006 80.785 40.808 78.3844C46.0046 74.2772 45.4317 64.5942 37.181 65.8611L37.0963 65.8733L37.1003 65.8772Z" fill="currentColor" stroke="currentColor" stroke-miterlimit="10" stroke-width="2"/>
</svg>