<svg width="103" height="107" viewBox="0 0 103 107" fill="none" xmlns="http://www.w3.org/2000/svg">
<path d="M71.3765 33.0301C71.7332 33.3084 72.6191 33.0499 73.1326 32.8852C75.508 31.9406 78.1342 32.7361 80.1411 34.1825C84.4529 37.1341 88.6275 42.7983 93.2685 45.6793C95.3108 46.9219 97.9253 47.7138 99.8734 49.0896C100.908 49.8305 101.598 50.6692 101.7 51.5276C101.755 53.5934 99.8342 55.9179 98.7014 57.819C93.0843 66.8816 86.8126 64.8354 78.4831 60.214C77.9657 59.9592 76.3625 59.0303 76.3429 59.6966C76.3586 60.6295 76.5428 61.8055 76.727 63.6909C77.9069 76.5047 79.7296 85.8024 79.1847 96.1154C78.6281 100.553 75.1277 101.305 71.0315 102.391C68.9619 102.885 65.6339 103.751 63.8622 103.316C61.1889 102.14 59.4015 94.7005 58.3 91.1923C57.6258 87.7977 54.0157 89.4557 51.7108 89.6282C50.0527 89.9182 48.2771 89.4361 47.4265 90.7532C46.9718 91.4901 47.0345 92.768 47.1051 93.9283C47.2226 95.9195 47.5441 97.9577 47.4108 99.9176C47.3128 103.042 45.2785 104.892 42.2328 105.437C37.5368 106.115 29.1367 105.311 26.4477 101.705C25.409 100.059 25.6521 97.7343 25.8049 95.6803C26.4243 90.3768 27.4786 85.336 27.8823 80.0404C28.439 74.4154 28.9525 68.7552 29.0113 63.0872C29.1367 58.9205 25.1855 63.1538 23.6607 64.0122C20.5798 65.8585 15.096 68.9199 11.5016 68.0027C7.00949 66.96 -1.7552 56.4 3.14847 51.9746C4.40672 51.1161 6.13144 50.7554 7.55824 50.0499C14.8099 47.1767 17.2048 37.8046 23.9625 37.6949C24.3937 37.6831 24.8994 37.7065 25.2953 37.6908C26.6555 37.6752 26.5261 37.0402 25.8205 35.8329C21.2853 28.6205 20.6621 18.9111 25.7892 11.8672C33.1585 2.48716 48.7357 -0.770311 59.8483 2.53016C68.5503 5.17602 73.211 12.1062 72.9248 23.4932C72.9562 26.1195 72.2388 28.8909 71.3098 31.1879C71.0629 31.8543 70.9531 32.7558 71.3412 32.9949L71.3726 33.0185L71.3765 33.0301ZM77.4365 55.4396C80.5371 58.1051 85.8445 60.696 89.8819 61.1233C93.3117 61.1703 95.7577 57.0194 97.3373 54.4049C98.4153 52.5861 97.5724 51.6218 95.9849 50.8143C91.0577 48.0626 86.6244 44.4367 82.5518 40.5679C80.537 38.7021 78.4791 35.7702 75.5236 35.6722C73.6931 35.7702 71.7685 37.2125 69.7968 37.3184C64.3444 37.7378 67.198 34.1513 68.5072 31.2389C70.3417 26.441 70.4513 20.7455 69.1265 15.7673C61.9415 -8.35903 7.56995 8.01402 30.6341 37.3811C31.6728 39.0549 31.4062 41.9124 28.8623 41.6301C26.6907 41.3205 24.1351 40.2582 21.9478 41.2382C20.5759 41.783 19.933 43.0687 19.0981 44.1859C17.9418 45.8204 16.2681 47.3375 14.6296 48.729C12.6971 50.3636 10.5294 51.9903 8.36957 52.9193C6.72326 53.6719 3.95987 54.2873 4.81831 56.6823C6.21376 60.5433 9.75327 65.8193 14.3551 64.7453C17.0245 64.0201 19.7096 62.7894 22.0105 61.2802C24.3545 59.7946 28.2939 55.9728 31.0221 58.2032C31.6179 58.748 31.8375 59.822 31.8767 60.7863C32.4215 72.6907 30.293 84.5323 28.7761 96.3035C28.3606 99.3688 29.0779 101.262 32.4803 101.866C35.3025 102.493 38.9244 102.975 41.8055 102.324C43.542 101.983 44.3103 100.796 44.2084 99.1258C44.1731 96.2291 43.6361 91.5215 44.1064 88.8404C44.5102 85.7594 47.5049 86.5277 49.7391 86.7432C51.9068 86.8099 54.196 86.3199 56.2539 85.8299C57.7042 85.4614 59.7425 84.9518 60.2364 86.8529C61.2751 89.8947 63.5644 96.9699 64.4189 99.4393C64.7521 100.694 66.0102 100.278 66.9902 100.094C69.0873 99.6668 72.2232 99.1023 74.0224 98.432C75.5001 97.9656 76.0292 96.629 76.1821 95.1121C76.3702 93.7088 76.4409 92.2544 76.4369 90.8315C76.0018 78.3626 73.8656 65.2509 72.1369 52.8801C72.1291 51.955 72.4975 50.885 73.4775 51.2182C74.2183 51.4847 74.869 52.6723 75.7 53.6131C76.237 54.2285 76.8054 54.84 77.3894 55.3927L77.4404 55.4396H77.4365Z" fill="#F9F7F0" stroke="#F9F7F0" stroke-width="2" stroke-miterlimit="10"/>
<path d="M63.5333 22.8002C63.1374 23.1804 62.9256 23.8036 62.6709 24.5287C61.1656 29.0404 57.0499 32.9484 52.4638 34.3713C47.9717 35.7471 42.6878 35.0495 39.3246 31.8667C38.4583 31.1219 37.5959 30.2752 36.7884 29.311C35.7849 28.1625 35.197 26.9826 34.0445 26.2417C33.241 25.7165 32.2415 25.7321 31.5634 25.1559C30.2738 23.9721 32.1161 22.753 33.2568 22.4473C35.2167 21.7927 39.0541 20.1935 38.9209 22.8197C38.3094 24.5719 37.3803 24.9756 38.7483 26.8375C44.3419 34.83 56.3247 32.6937 59.4566 23.6468C59.7428 22.7844 59.7977 21.9613 59.3038 21.2204C58.7041 20.2836 56.6696 19.0567 57.6692 17.8063C58.947 16.7989 61.0167 18.1238 62.4749 18.2884C63.9997 18.6295 66.3007 19.0607 66.8612 20.0759C67.3316 20.8716 66.5868 21.5967 65.8342 21.875C65.109 22.1886 64.1251 22.2435 63.5724 22.7648L63.5333 22.804V22.8002Z" fill="#F9F7F0" stroke="#F9F7F0" stroke-width="2" stroke-miterlimit="10"/>
</svg>
