<?xml version="1.0" encoding="utf-8"?>
<svg fill="currentColor" height="87" viewBox="0 0 101 87" width="101" xmlns="http://www.w3.org/2000/svg">
<path d="M31.2518 2.24589C23.9009 -0.313471 16.0276 -0.783107 8.50781 1.34354C3.19911 2.8475 -0.626757 8.87393 1.13577 14.3251C2.8983 19.7763 8.42866 23.3065 14.1173 21.697C14.6925 21.5334 15.273 21.3963 15.8482 21.2432C17.0197 20.9213 16.492 20.9002 15.6582 21.1799C16.7664 20.8052 18.5131 21.0164 19.6423 21.0745C19.8851 21.0903 21.7743 21.3277 20.4972 21.1219C19.2202 20.9161 21.1674 21.296 21.389 21.3435C22.8349 21.6707 24.2439 22.1086 25.6423 22.5993C30.8613 24.4199 37.4154 20.5309 38.6239 15.2275C39.9642 9.33829 36.8402 4.19312 31.2518 2.24589Z" fill="currentColor"/>
<path d="M97.7157 37.5126C92.5548 31.502 86.0535 26.8846 78.4124 24.6418C73.1142 23.0904 66.6815 26.5205 65.4308 32.0139C64.1802 37.5073 67.13 43.333 72.8028 44.9953C73.415 45.1747 74.0166 45.4123 74.6287 45.5812C75.8213 45.9084 72.8873 44.6049 74.5812 45.5706C75.7316 46.225 76.8609 46.8476 77.9638 47.5758C78.9506 48.2302 78.3754 47.9663 77.7844 47.4122C78.3015 47.8977 78.8609 48.3358 79.378 48.816C80.5918 49.9505 81.7105 51.1747 82.7923 52.4359C86.4018 56.6417 94.064 56.4201 97.7157 52.4359C101.827 47.9557 101.563 41.9981 97.7157 37.5126Z" fill="currentColor"/>
<path d="M9.85876 13.2117C6.12262 22.6048 5.60018 33.6286 6.60809 43.6075C7.69516 54.3885 10.4603 64.0032 17.3099 72.5995C24.0751 81.085 34.1331 85.7922 44.8613 86.4729C55.5896 87.1536 65.9325 82.4993 73.9642 74.9057C83.3204 66.0561 90.3019 53.7659 93.2254 41.2382C94.476 35.8715 91.5631 29.5548 85.8534 28.2567C80.4602 27.0271 74.2122 29.8766 72.8718 35.6285C72.3705 37.771 71.7637 39.8767 71.0143 41.9453C70.8244 42.4677 70.5974 42.9848 70.418 43.5073C71.1146 41.465 70.7188 42.837 70.5024 43.3119C69.9114 44.5943 69.3046 45.8607 68.6449 47.1061C67.6581 48.9636 66.5711 50.7737 65.4048 52.5256C64.7874 53.4491 64.1331 54.3357 63.484 55.2381C62.5975 56.4729 64.6238 53.9189 63.6212 55.0376C63.1727 55.539 62.761 56.0772 62.3178 56.5785C60.9457 58.1405 59.484 59.6339 57.922 61.0112C57.5473 61.3436 57.1621 61.6603 56.7822 61.9875C55.3151 63.2592 56.9563 61.729 57.1885 61.6868C56.3231 61.8504 55.0566 63.1536 54.2597 63.618C53.9009 63.8238 52.0275 64.5046 51.8956 64.8476C51.9642 64.6682 54.3653 63.9876 52.645 64.51C52.2492 64.6314 51.8639 64.7792 51.4682 64.8953C51.0935 65.0061 49.3363 65.1484 49.1305 65.4175C49.1832 65.3489 51.2149 65.2276 50.0276 65.2751C49.4049 65.3014 48.7769 65.3806 48.1542 65.407C47.1832 65.4439 46.207 65.444 45.236 65.3913C45.3574 65.3965 43.8165 65.2962 43.8165 65.2856C43.8429 65.0798 46.1859 65.729 44.5447 65.3807C43.6476 65.1907 42.7558 65.0271 41.8692 64.779C41.4365 64.6577 41.0038 64.5257 40.5764 64.3833C40.2545 64.2777 39.9379 64.1668 39.6265 64.0455C38.8772 63.7605 39.2044 63.8977 40.6028 64.4729C40.5817 64.3146 35.8007 62.0034 35.9907 61.787C36.0645 61.7078 37.9959 63.523 36.5342 62.1879C36.2017 61.8819 35.8482 61.5916 35.5157 61.2856C34.7558 60.5785 34.0645 59.8134 33.3627 59.0482C31.6424 57.1591 34.3178 60.5151 32.8455 58.3726C32.36 57.6708 31.901 56.9478 31.4735 56.209C30.9669 55.3383 30.492 54.4466 30.054 53.5442C29.8851 53.1959 29.6687 52.4677 29.4102 52.1353C30.7242 53.8134 30.1964 54.151 29.7637 52.8106C29.2835 51.3278 28.8666 49.8396 28.5289 48.3146C28.3389 47.4597 28.1753 46.5997 28.0223 45.7343C27.9432 45.2805 27.8798 44.8265 27.8007 44.3779C27.4735 42.4149 27.9748 46.0984 27.8482 44.7106C27.4207 39.9823 27.178 35.2963 27.521 30.5522C27.5579 30.0351 27.6001 29.5125 27.6529 28.9954C27.6846 28.6471 27.9537 26.3991 27.7321 28.093C27.5263 29.6498 27.7585 27.9874 27.8271 27.6022C27.9326 26.9795 28.0434 26.3621 28.1754 25.7447C28.6661 23.3858 29.3416 21.08 30.2281 18.8425C32.2756 13.6974 27.9959 7.03243 22.8561 5.86093C16.7664 4.47307 12.0645 7.72358 9.87458 13.2328L9.85876 13.2117Z" fill="currentColor"/>
</svg>