<svg width="24" height="24" viewBox="0 0 24 24" fill="none" xmlns="http://www.w3.org/2000/svg">
<path d="M18.003 13.0681L20.263 10.8071C21.0989 9.97144 21.762 8.97932 22.2145 7.88738C22.667 6.79544 22.8999 5.62507 22.9 4.4431V1.1001H19.557C18.3751 1.10009 17.2048 1.33287 16.1128 1.78516C15.0209 2.23744 14.0287 2.90037 13.193 3.7361L10.932 5.9961L5.27501 5.2891L1.04001 9.5241L14.475 22.9601L18.71 18.7251L18.003 13.0681ZM16.211 14.8591L16.604 18.0021L14.475 20.1311L12.707 18.3631L16.211 14.8591ZM9.14101 7.7881L5.63601 11.2921L3.87001 9.5241L5.99901 7.3951L9.14101 7.7881ZM5.63601 16.9481L2.10101 20.4841L0.687012 19.0701L4.22201 15.5351L5.63601 16.9481ZM8.46501 19.7781L4.92901 23.3131L3.51501 21.8991L7.05001 18.3631L8.46501 19.7781Z" fill="#F9564F"/>
</svg>
