<svg width="52" height="48" viewBox="0 0 52 48" fill="none" xmlns="http://www.w3.org/2000/svg">
<path d="M12.4535 32.2615C12.7049 32.0146 12.7289 31.5655 12.8566 31.165C13.2198 29.9147 14.042 30.5742 14.7764 31.0557C15.2633 31.3754 15.7383 31.7396 16.3011 31.9135C17.5504 32.302 19.1111 31.9944 20.1049 31.1326C20.3803 30.8291 20.069 30.5459 19.8016 30.3396C17.1313 28.3529 15.6146 25.0594 15.5188 21.7133C15.4709 19.3989 16.2133 16.9916 17.8378 15.3286C19.6379 13.4553 22.5596 12.8321 24.9504 13.9002C26.9022 14.7823 28.3152 16.7002 29.1215 18.6343C30.3867 21.8388 30.0394 25.5005 29.1414 28.7577C28.9777 29.3605 29.3529 29.4615 29.7401 29.0084C30.2669 28.3529 30.4984 27.5195 30.8417 26.7628C31.0652 26.2207 31.3008 25.6825 31.5083 25.1363C32.2587 23.0404 33.001 20.9325 33.5359 18.7678C33.5917 18.5574 33.6596 18.3227 33.6436 18.1123C33.6117 17.6551 32.2667 17.3637 31.9833 17.0804C30.8457 15.9516 32.6697 14.5111 33.6317 13.6331C35.0047 12.391 36.4816 11.2419 38.0821 10.3113C39.0959 9.7327 39.974 9.94719 40.4929 11.068C40.7484 11.598 40.872 12.1563 41.0077 12.7228C41.355 14.236 41.5945 15.8667 41.8739 17.5135C42.0376 18.4765 42.1892 19.6619 41.3191 20.2243C40.9878 20.4387 39.9141 20.2244 39.5389 20.1516C38.7726 19.9816 38.7087 20.7382 38.5131 21.2925C38.0701 22.6965 37.7348 24.133 37.3317 25.5451C36.8168 27.293 36.1861 29.0045 35.5395 30.7039C35.0606 31.9379 34.4858 33.18 33.6636 34.2239C33.2166 34.7499 32.6658 35.1585 32.0631 35.5469C31.4125 35.9758 30.6621 36.2632 29.8758 36.243C28.9139 36.2308 28.0079 35.8343 27.1058 35.5106C26.5071 35.3002 25.9722 34.9563 25.3935 34.6933C24.9784 34.5152 24.5952 34.7579 24.2719 35.0169C22.2443 36.5746 19.614 37.129 17.0954 36.9712C16.9078 36.9671 16.7242 36.9711 16.5406 36.9913C16.2213 37.0277 15.914 37.1209 15.6066 37.214C14.8323 37.4527 14.046 37.6509 13.2597 37.833C12.7967 37.9301 12.178 38.1769 11.8068 37.7885C11.4795 37.4041 11.3398 36.6597 11.5155 36.2268C11.5993 36.0204 11.7988 35.8465 11.8746 35.6441C11.9904 35.2638 11.4596 35.2354 11.1921 35.2111C10.4817 35.1868 10.1624 34.6608 10.0427 33.9811C9.90296 33.3054 10.0906 32.751 10.8409 32.658C11.3478 32.5406 12.0344 32.6378 12.4415 32.2858L12.4495 32.2777L12.4535 32.2615ZM12.19 37.5376C12.4095 37.6428 12.6769 37.5902 12.9124 37.5457C13.8265 37.3515 14.7365 37.1129 15.6346 36.8418C15.9818 36.7406 16.333 36.6515 16.6923 36.6272C17.0395 36.6029 17.3948 36.6273 17.746 36.6395C18.8477 36.684 19.9533 36.5463 21.015 36.2388C23.5096 35.5591 25.4773 33.8597 26.9781 31.7719C27.9839 30.469 28.886 29.0287 29.1973 27.3779C30.1153 23.2023 29.8319 18.2741 26.4831 15.2921C25.8565 14.7297 25.1461 14.232 24.3358 13.9852C22.9668 13.5765 21.434 13.5967 20.1089 14.1551C18.8117 14.6892 17.75 15.7292 17.0316 16.939C14.7285 20.8313 15.9818 26.3704 19.1949 29.3685C19.6379 29.7408 20.3483 30.5014 20.951 30.3963C21.7174 30.2061 22.7831 28.6806 23.1743 27.9806C23.4736 27.4749 23.4417 27.0622 22.9947 26.6656C21.8132 25.5651 21.0149 24.0723 20.5799 22.5105C20.3843 21.7984 20.3843 21.0173 20.6836 20.3335C21.0588 19.3705 21.901 19.2208 22.7551 19.7347C23.8248 20.4509 24.2759 21.7741 24.4356 23.0081C25.0782 26.8439 22.5517 30.6714 19.0392 32.1158C18.4645 32.3505 17.8218 32.476 17.2152 32.4355C16.1894 32.4031 15.2394 31.7962 14.3972 31.2136C14.0939 31.0234 13.7307 30.7564 13.4433 30.9182C13.2278 31.0396 13.096 31.4442 13.092 31.7517C13.088 31.95 13.1679 32.132 13.2398 32.3101C13.2797 32.4233 13.3276 32.5407 13.2358 32.6297C13.104 32.739 12.9324 32.751 12.7687 32.7753C12.2698 32.8279 11.767 32.8563 11.264 32.917C10.8849 32.9574 10.4099 33.0788 10.358 33.532C10.3141 33.9083 10.4458 34.3615 10.7372 34.6164C11.0924 34.9442 11.6871 34.7135 12.0543 34.8875C12.3697 35.0372 12.4494 35.4741 12.3057 35.7736C12.186 36.0325 11.9226 36.2105 11.8388 36.4897C11.739 36.8458 11.8467 37.3393 12.178 37.5295H12.19V37.5376ZM33.939 17.6873C34.1186 18.1203 33.8712 18.6262 33.7834 19.0632C33.6557 19.5366 33.5479 20.01 33.4082 20.4793C32.578 23.0891 31.7118 25.6948 30.5503 28.175C30.2829 28.701 30.0075 29.2755 29.5086 29.6113C29.2771 29.7651 28.9897 29.8136 28.7462 29.9229C28.4149 30.0645 28.2034 30.3882 28.0159 30.6877C27.3613 31.7113 26.6228 32.666 25.7846 33.544C25.601 33.7544 25.2538 34.0378 25.5053 34.3211C26.4632 35.0453 28.6424 35.9111 29.8319 35.8342C30.8776 35.7856 31.8435 35.3083 32.6618 34.669C33.041 34.3857 33.3682 34.066 33.6436 33.6614C34.1106 32.925 34.5497 32.1645 34.901 31.3633C36.278 28.175 37.2359 24.841 38.1419 21.4909C38.2577 21.0903 38.3814 20.6936 38.5171 20.3011C38.6089 20.03 38.8125 19.8602 39.0999 19.7995C39.6827 19.7186 40.6326 20.3983 41.2313 19.9007C42.0814 19.14 41.5107 17.5417 41.4268 16.4978C41.2792 15.1707 41.0198 13.8518 40.6805 12.557C40.4091 11.6952 40.0738 10.1009 38.8844 10.38C38.3415 10.5298 37.8786 10.8939 37.4036 11.1893C36.1623 11.9904 34.9928 12.9009 33.8872 13.8801C33.6237 14.1148 33.4161 14.4101 33.1567 14.6488C32.4502 15.3043 31.4844 16.247 32.2148 16.8661C32.4742 17.1331 33.7554 17.3515 33.943 17.6792V17.6915L33.939 17.6873ZM23.6732 26.6536C23.9885 26.4675 24.0165 25.9698 24.0963 25.634C24.3238 24.2462 24.1881 22.4578 23.5774 21.1751C23.302 20.6289 22.9029 20.0666 22.3401 19.8157C21.8452 19.581 21.2824 19.7308 21.0349 20.2446C20.7436 20.7787 20.6717 21.4059 20.7834 22.0047C21.0309 23.4006 21.6935 24.6954 22.5317 25.8161C22.7832 26.0953 23.2541 26.7993 23.6612 26.6617H23.6732V26.6536Z" fill="#29235C" stroke="#29235C" stroke-width="1.44688" stroke-miterlimit="10"/>
</svg>
