<svg width="330" height="202" viewBox="0 0 330 202" fill="none" xmlns="http://www.w3.org/2000/svg">
<g clip-path="url(#clip0_467_3648)">
<path d="M108.52 120C107.3 118.62 106.35 116.88 105.26 116.49C105.18 116.46 105.1 116.44 105.02 116.43C104.55 118.02 104.08 119.6 103.6 121.13C104.19 125.26 104.8 129.45 105.4 133.67C107.09 129.71 108.41 125.5 109.62 121.22C109.24 120.82 108.88 120.41 108.52 120ZM130.02 135.4C130.87 135.32 131.69 135.16 132.51 134.91C131.64 134.45 130.68 134.63 130.02 135.4ZM108.52 120C107.3 118.62 106.35 116.88 105.26 116.49C105.18 116.46 105.1 116.44 105.02 116.43C104.55 118.02 104.08 119.6 103.6 121.13C104.19 125.26 104.8 129.45 105.4 133.67C107.09 129.71 108.41 125.5 109.62 121.22C109.24 120.82 108.88 120.41 108.52 120ZM115.04 91.5101C114.76 91.3101 114.47 91.1101 114.17 90.9301C111.36 89.1801 107.91 88.3501 104.76 89.6001C104.01 89.8401 102.71 90.2201 102.18 89.8101L102.14 89.7801C101.57 89.4301 101.73 88.1101 102.09 87.1301C103.46 83.7601 104.51 79.7001 104.46 75.84C104.88 59.14 98.0498 48.9801 85.2898 45.1001C68.9898 40.2501 46.1398 45.0301 35.3298 58.7901C27.8098 69.1201 28.7198 83.3601 35.3698 93.9401C36.4098 95.7101 36.5998 96.6401 34.5998 96.6601C34.0198 96.6901 33.2798 96.6601 32.6498 96.6701C22.7398 96.8301 19.2298 110.58 8.58976 114.79C6.48976 115.83 3.95976 116.35 2.11976 117.61C-5.07024 124.11 7.77976 139.6 14.3698 141.12C19.6398 142.47 27.6798 137.98 32.1998 135.27C34.4298 134.01 40.2298 127.81 40.0498 133.92C39.9598 142.23 39.2098 150.53 38.3898 158.78C37.7998 166.55 36.2498 173.94 35.3498 181.72C35.1198 184.73 34.7598 188.14 36.2898 190.55C40.2298 195.85 52.5498 197.02 59.4398 196.03C63.9098 195.23 66.8898 192.51 67.0298 187.93C67.2298 185.06 66.7598 182.07 66.5798 179.15C66.4798 177.45 66.3898 175.58 67.0598 174.49C68.3098 172.56 70.9098 173.27 73.3398 172.84C76.7198 172.58 82.0198 170.16 83.0098 175.13C84.6198 180.28 87.2498 191.19 91.1698 192.92C93.7698 193.55 98.6498 192.29 101.68 191.56C107.69 189.97 112.83 188.86 113.64 182.35C114.19 172.05 113.12 162.43 111.84 151.41C111.58 149.18 111.31 146.89 111.04 144.53C109.05 143.26 107.35 141.71 106.28 139.96C106.69 143 107.09 146.04 107.45 149.08C108.49 157.66 109.31 166.22 109.6 174.59C109.6 176.68 109.51 178.81 109.23 180.87C109.01 183.1 108.23 185.06 106.06 185.74C103.43 186.72 98.8198 187.55 95.7498 188.18C94.3198 188.45 92.4698 189.06 91.9798 187.22C90.7298 183.6 87.3698 173.22 85.8498 168.76C85.1198 165.97 82.1398 166.71 80.0098 167.25C76.9898 167.97 73.6298 168.69 70.4498 168.59C67.1698 168.28 62.7798 167.15 62.1898 171.67C61.4998 175.6 62.2798 182.51 62.3398 186.75C62.4898 189.2 61.3598 190.94 58.8098 191.44C54.5898 192.4 49.2798 191.69 45.1398 190.77C40.1498 189.89 39.0898 187.11 39.6998 182.61C41.9298 165.35 45.0498 147.99 44.2498 130.52C44.1998 129.11 43.8798 127.53 42.9998 126.73C38.9998 123.46 33.2198 129.06 29.7798 131.24C26.4098 133.46 22.4598 135.27 18.5498 136.33C11.7998 137.91 6.60976 130.16 4.55976 124.5C3.30976 120.99 7.35976 120.08 9.76976 118.98C12.9398 117.62 16.1198 115.24 18.9498 112.84C21.3598 110.8 23.8098 108.57 25.5098 106.18C26.7298 104.53 27.6698 102.65 29.6898 101.85C32.8898 100.41 36.6398 101.98 39.8298 102.43C43.5598 102.84 43.9498 98.6501 42.4298 96.1901C8.59976 53.1201 88.3398 29.1001 98.8898 64.4901C100.83 71.7901 100.67 80.1501 97.9798 87.1801C96.0598 91.4601 91.8698 96.7201 99.8698 96.1001C102.76 95.9501 105.58 93.8301 108.27 93.6901C109.71 93.7401 110.99 94.2401 112.18 94.9901C113.81 96.0101 115.26 97.5101 116.64 98.9301C117.28 97.4101 117.99 95.9201 118.77 94.4801C117.53 93.3701 116.29 92.3601 115.04 91.5101ZM105.26 116.49C105.18 116.46 105.1 116.44 105.02 116.43C104.55 118.02 104.08 119.6 103.6 121.13C104.19 125.26 104.8 129.45 105.4 133.67C107.09 129.71 108.41 125.5 109.62 121.22C109.24 120.82 108.88 120.41 108.52 120C107.3 118.62 106.35 116.88 105.26 116.49ZM108.52 120C107.3 118.62 106.35 116.88 105.26 116.49C105.18 116.46 105.1 116.44 105.02 116.43C104.55 118.02 104.08 119.6 103.6 121.13C104.19 125.26 104.8 129.45 105.4 133.67C107.09 129.71 108.41 125.5 109.62 121.22C109.24 120.82 108.88 120.41 108.52 120Z" fill="#29235C"/>
<path d="M94.06 73.45C92.99 73.91 91.55 73.99 90.74 74.75L90.68 74.81C90.1 75.36 89.78 76.28 89.41 77.34C87.21 83.96 81.17 89.69 74.44 91.78C67.85 93.8 60.1 92.77 55.17 88.11C53.9 87.01 52.63 85.77 51.45 84.36C49.98 82.67 49.11 80.95 47.42 79.86C46.25 79.09 44.78 79.11 43.78 78.26C41.89 76.53 44.59 74.74 46.27 74.29C49.14 73.33 54.77 70.98 54.58 74.83C53.68 77.41 52.32 78 54.32 80.73C62.53 92.45 80.11 89.32 84.7 76.05C85.12 74.79 85.2 73.58 84.48 72.49C83.6 71.12 80.61 69.32 82.08 67.48C83.95 66 86.99 67.95 89.13 68.19C91.37 68.69 94.74 69.32 95.56 70.81C96.25 71.98 95.16 73.04 94.06 73.45Z" fill="#29235C"/>
<path d="M112.18 94.99C109.22 101.62 107.13 109.25 105.02 116.43C105.1 116.43 105.18 116.46 105.26 116.49C106.35 116.88 107.3 118.62 108.52 120C108.88 120.41 109.24 120.82 109.62 121.22C111.78 113.69 113.62 105.95 116.64 98.93C115.26 97.51 113.81 96.01 112.18 94.99ZM252.56 38.05C249.46 36.09 244.81 35.89 242.28 38.83C237.33 45.2 230.5 50.41 224.03 55.35C220.31 57.93 216.63 60.88 212.21 62.15C209.71 62.32 211.13 59.21 211.61 56.93C215.27 42.61 214.95 25.58 205.17 13.7C186.41 -8.63997 136.39 -0.889971 121.44 23.94C113.48 37.87 115.55 55.75 124.86 68.47C126.13 70.18 127.45 72.38 126.83 74.42C126.01 77.26 123 79.65 121 81.88C119.19 83.75 117.53 85.62 116.1 87.74C115.42 88.76 114.78 89.82 114.17 90.93C113.46 92.23 112.8 93.59 112.18 94.99C109.22 101.62 107.13 109.25 105.02 116.43C104.55 118.02 104.08 119.6 103.6 121.13C103.35 121.95 103.09 122.77 102.82 123.57C102 126.03 100.94 128.65 100.04 130.95C99.0296 133.56 98.1696 135.97 98.9696 138.72C100.53 143.14 103.62 146.58 107.45 149.08C108.82 149.98 110.3 150.76 111.84 151.41C114.91 152.72 118.22 153.54 121.48 153.88C123.9 154.26 126.97 153.95 126.95 156.16C126.37 165.97 123.07 178.88 123.77 189.18C124.63 196.98 132.34 197.93 139.12 199.46C143.52 200.29 147.83 201.23 152.23 200.46C156.29 199.65 161.87 198.23 164.09 194.32L164.13 194.24C164.6 193.14 164.58 191.92 164.6 190.7C164.6 186.11 164.58 175.87 164.62 172.11C164.66 171.22 164.64 170.25 165.57 169.9C169.37 169.11 175 169.06 179.02 168.61C181.23 168.43 182.74 168.33 183.64 168.85C184.69 169.37 185.19 171.21 185.61 172.53C187.99 179.23 190.22 192.53 195.91 195.69C197.9 196.64 199.94 196.36 202.28 195.91C204.73 195.45 207.36 194.87 209.82 194.28C215.63 192.85 220.32 191.68 223.99 187.22C225.69 184.82 225.71 182.07 225.93 179.06C226.56 161.5 223.31 142.3 221.4 125.8C220.42 118.86 218.97 111.92 218.73 104.92C218.71 103.55 218.87 102.25 219.37 101.13C220.01 99.63 221.38 98.45 222.83 97.6C226.82 95.32 231.06 93.26 235.04 91.01C242.55 86.69 248.58 82.67 256.06 76.27C260.66 72.04 266.34 66.74 266.88 60.48C266.6 52.77 258.88 42.27 252.56 38.05ZM239.95 81.21C235.22 84.39 230.61 87.14 225.75 89.76C223.14 91.17 220.56 92.65 217.88 93.61C214.72 94.63 211.41 96.26 211.98 100.17C215.16 119.8 217.75 140.68 219.47 160.38C219.98 166.96 220.11 174.47 219.63 180.92C219.49 183.95 218.48 185.35 215.91 186.22C212.3 187.58 205.29 189.26 201.34 189.84C200.11 190.01 198.71 190.07 197.86 189.1L197.8 189.03C196.91 187.92 196.54 186.24 196.06 184.82C194.78 180.73 193.13 176.75 191.84 172.67C190.39 168.48 190.11 160.53 183.81 161.79C179.17 162.82 174.61 164.03 169.77 163.77C167.64 163.73 165.38 163.47 163.28 163.66C155.36 164.33 158.62 177.88 158.79 183.19C159.65 191.6 157.56 194.08 149.55 194.42C145.55 194.6 140.79 194.04 137 193.19C134.15 192.51 131.91 191.92 130.61 190.38C124.9 183.79 138.26 144.49 133.65 136C133.32 135.49 132.92 135.13 132.51 134.91C131.64 134.45 130.68 134.63 130.02 135.4C129.87 135.57 129.74 135.77 129.63 136C127.74 139 128.46 145.97 125.26 147.73C121.49 148.76 115.52 147.37 111.04 144.53C109.05 143.26 107.35 141.71 106.28 139.96C105.15 138.15 104.7 136.12 105.27 133.97C105.31 133.87 105.36 133.77 105.4 133.67C107.09 129.71 108.41 125.5 109.62 121.22C111.78 113.69 113.62 105.95 116.64 98.93C117.28 97.41 117.99 95.92 118.77 94.48C120.74 90.8 123.17 87.41 126.3 84.47C128.92 81.76 132.61 78.27 133.8 74.82C135.18 70.64 130.99 67.38 128.82 63.94C116.09 45.74 122.38 24.51 139.52 14.82C155 5.60003 178.62 2.15003 194.9 12.5C209.93 22.56 212.03 46.66 202.58 62.57C201.58 64.33 200.25 66.84 201.18 67.94C201.84 68.86 203.23 69.21 204.48 69.36C220.21 70.55 232.47 55.74 244.24 45.78C245.85 44.4 247.8 42.61 249.98 43.46C252.78 44.72 255.5 48.6 257.31 51.46C259.19 54.77 261.28 57.57 261.05 61.13C259.44 67.72 248.75 75.06 239.95 81.21ZM112.18 94.99C109.22 101.62 107.13 109.25 105.02 116.43C105.1 116.43 105.18 116.46 105.26 116.49C106.35 116.88 107.3 118.62 108.52 120C108.88 120.41 109.24 120.82 109.62 121.22C111.78 113.69 113.62 105.95 116.64 98.93C115.26 97.51 113.81 96.01 112.18 94.99Z" fill="#29235C"/>
<path d="M112.18 94.99C109.22 101.62 107.13 109.25 105.02 116.43M112.18 94.99C113.81 96.01 115.26 97.51 116.64 98.93M112.18 94.99C112.8 93.59 113.46 92.23 114.17 90.93C114.78 89.82 115.42 88.76 116.1 87.74C117.53 85.62 119.19 83.75 121 81.88C123 79.65 126.01 77.26 126.83 74.42C127.45 72.38 126.13 70.18 124.86 68.47C115.55 55.75 113.48 37.87 121.44 23.94C136.39 -0.889971 186.41 -8.63997 205.17 13.7C214.95 25.58 215.27 42.61 211.61 56.93C211.13 59.21 209.71 62.32 212.21 62.15C216.63 60.88 220.31 57.93 224.03 55.35C230.5 50.41 237.33 45.2 242.28 38.83C244.81 35.89 249.46 36.09 252.56 38.05C258.88 42.27 266.6 52.77 266.88 60.48C266.34 66.74 260.66 72.04 256.06 76.27C248.58 82.67 242.55 86.69 235.04 91.01C231.06 93.26 226.82 95.32 222.83 97.6C221.38 98.45 220.01 99.63 219.37 101.13C218.87 102.25 218.71 103.55 218.73 104.92C218.97 111.92 220.42 118.86 221.4 125.8C223.31 142.3 226.56 161.5 225.93 179.06C225.71 182.07 225.69 184.82 223.99 187.22C220.32 191.68 215.63 192.85 209.82 194.28C207.36 194.87 204.73 195.45 202.28 195.91C199.94 196.36 197.9 196.64 195.91 195.69C190.22 192.53 187.99 179.23 185.61 172.53C185.19 171.21 184.69 169.37 183.64 168.85C182.74 168.33 181.23 168.43 179.02 168.61C175 169.06 169.37 169.11 165.57 169.9C164.64 170.25 164.66 171.22 164.62 172.11C164.58 175.87 164.6 186.11 164.6 190.7C164.58 191.92 164.6 193.14 164.13 194.24L164.09 194.32C161.87 198.23 156.29 199.65 152.23 200.46C147.83 201.23 143.52 200.29 139.12 199.46C132.34 197.93 124.63 196.98 123.77 189.18C123.07 178.88 126.37 165.97 126.95 156.16C126.97 153.95 123.9 154.26 121.48 153.88C118.22 153.54 114.91 152.72 111.84 151.41C110.3 150.76 108.82 149.98 107.45 149.08C103.62 146.58 100.53 143.14 98.9696 138.72C98.1696 135.97 99.0296 133.56 100.04 130.95C100.94 128.65 102 126.03 102.82 123.57C103.09 122.77 103.35 121.95 103.6 121.13C104.08 119.6 104.55 118.02 105.02 116.43M105.02 116.43C105.1 116.43 105.18 116.46 105.26 116.49C106.35 116.88 107.3 118.62 108.52 120C108.88 120.41 109.24 120.82 109.62 121.22M109.62 121.22C111.78 113.69 113.62 105.95 116.64 98.93M109.62 121.22C108.41 125.5 107.09 129.71 105.4 133.67C105.36 133.77 105.31 133.87 105.27 133.97C104.7 136.12 105.15 138.15 106.28 139.96C107.35 141.71 109.05 143.26 111.04 144.53C115.52 147.37 121.49 148.76 125.26 147.73C128.46 145.97 127.74 139 129.63 136C129.74 135.77 129.87 135.57 130.02 135.4C130.68 134.63 131.64 134.45 132.51 134.91C132.92 135.13 133.32 135.49 133.65 136C138.26 144.49 124.9 183.79 130.61 190.38C131.91 191.92 134.15 192.51 137 193.19C140.79 194.04 145.55 194.6 149.55 194.42C157.56 194.08 159.65 191.6 158.79 183.19C158.62 177.88 155.36 164.33 163.28 163.66C165.38 163.47 167.64 163.73 169.77 163.77C174.61 164.03 179.17 162.82 183.81 161.79C190.11 160.53 190.39 168.48 191.84 172.67C193.13 176.75 194.78 180.73 196.06 184.82C196.54 186.24 196.91 187.92 197.8 189.03L197.86 189.1C198.71 190.07 200.11 190.01 201.34 189.84C205.29 189.26 212.3 187.58 215.91 186.22C218.48 185.35 219.49 183.95 219.63 180.92C220.11 174.47 219.98 166.96 219.47 160.38C217.75 140.68 215.16 119.8 211.98 100.17C211.41 96.26 214.72 94.63 217.88 93.61C220.56 92.65 223.14 91.17 225.75 89.76C230.61 87.14 235.22 84.39 239.95 81.21C248.75 75.06 259.44 67.72 261.05 61.13C261.28 57.57 259.19 54.77 257.31 51.46C255.5 48.6 252.78 44.72 249.98 43.46C247.8 42.61 245.85 44.4 244.24 45.78C232.47 55.74 220.21 70.55 204.48 69.36C203.23 69.21 201.84 68.86 201.18 67.94C200.25 66.84 201.58 64.33 202.58 62.57C212.03 46.66 209.93 22.56 194.9 12.5C178.62 2.15003 155 5.60003 139.52 14.82C122.38 24.51 116.09 45.74 128.82 63.94C130.99 67.38 135.18 70.64 133.8 74.82C132.61 78.27 128.92 81.76 126.3 84.47C123.17 87.41 120.74 90.8 118.77 94.48C117.99 95.92 117.28 97.41 116.64 98.93" stroke="#29235C" stroke-miterlimit="10"/>
<path d="M194.94 40.65C187.67 65.88 162.22 74.04 143.79 52.88C142.55 51.45 141.65 48.64 140.58 47.86C139.51 47.08 137.45 48.25 135.43 47.43C133.47 46.64 133.28 43.01 135.03 42.24C135.85 41.88 144.84 39.21 145.67 39.11C147.24 38.91 148.45 39.28 149.86 39.86C150.96 45.6 144.13 42.89 147.94 48.73C159.96 67.17 185.46 59.14 189.15 39C186.91 38.44 182.86 36.95 182.59 34.44C181.99 28.82 189.2 33.09 191.61 33.66C194.88 34.43 201.91 34.38 202.27 37.78C202.71 41.88 197.46 40.85 194.95 40.65H194.94Z" fill="#29235C" stroke="#29235C" stroke-miterlimit="10"/>
<path d="M301.57 111.91C303.09 113.17 313.06 104.77 314.71 103.24C316.1 102.06 316.86 100.12 318.66 99.5101C322.75 98.5301 327.27 105.11 328.62 108.94C330.78 113.91 324.86 118.16 320.5 121.64C316.47 124.78 311.85 126.91 307.51 129.54C306.13 130.35 305.39 131.8 305.5 133.38C305.57 136.53 306.22 139.63 306.71 142.76C307.99 149.61 306.63 155.19 311.61 161.29C312.24 162.13 312.93 162.94 313.65 163.7C314.67 164.76 315.86 165.84 315.5 167.37C315.18 168.77 314 169.8 313.25 170.95C312.26 172.44 311.59 173.93 310.16 175.03C307.99 176.76 305.44 178.43 302.72 178.97C299.18 179.67 295.73 178.93 293.19 176.4C291.45 174.78 290 172.72 288.94 170.63C288.29 169.37 287.72 168.06 287.15 166.77C286.71 165.7 286.19 164.73 284.83 164.71C283.41 164.71 281.78 164.79 280.64 165.49C279.91 165.98 279.55 166.86 279.17 167.67C276.14 174.27 273.49 180.95 265.87 181.57C262.7 181.91 260.22 180.93 257.65 178.89C254.32 176.16 249.34 171.61 250.77 166.99C251.11 166.08 251.77 165.36 252.38 164.62C253.28 163.58 254.17 162.43 254.92 161.31C256.26 159.34 257.59 157.25 258.73 154.98C261.12 150.15 262.54 144.55 259.29 140.26C257.55 138.33 254.86 137.22 252.58 135.98C250.1 134.75 248.2 133.53 246.02 132.02C240.77 128.27 233.97 123.21 232.77 118.14C232.47 116 233.54 114.18 234.67 112.26C236.33 109.66 238.33 107.11 240.58 105.1C243.42 102.51 245.59 103.1 248.09 105.6C249.34 106.68 256.83 114.68 257.86 113.69C258.02 113.31 257.45 112.04 256.98 110.83C254.93 105.87 254.59 100.44 256.68 95.5201C262.41 82.3301 284.7 77.6701 296.14 85.7301C303.5 91.0801 304.23 101.61 301.81 110.01C301.68 110.55 301.34 111.53 301.55 111.92L301.57 111.95V111.91ZM297.03 115.22C296.37 114.56 297.03 113.22 297.44 112.41C302.07 104.56 301.18 92.8101 293.67 87.6301C291.76 86.2701 289.24 85.3901 286.89 85.0001C267.85 81.8401 248.87 97.3001 262.85 114.92C264.4 117.17 263.63 119.1 260.89 118.52C258.53 117.9 255.73 116.11 253.54 114.6C252.42 113.82 251.49 113.08 250.55 112.13C249.09 110.69 247.2 108.58 245.64 107.42C244.06 106.08 242.34 107.19 240.99 108.66C238.91 110.89 236.07 114.71 235.64 117.3C235.53 118.25 235.87 118.88 236.51 119.71C237.82 121.32 239.52 123.28 241.07 124.74C244.57 127.85 248.7 130.55 252.78 132.83C262.97 137.94 264.8 139.74 264.09 151.33C263.87 152.64 262.64 153.08 262.02 154.16C260.75 156.35 259.64 159.17 258.25 161.39C257.24 163.04 256.01 164.73 254.75 166.3C253.94 167.29 253.07 168.5 253.61 169.8C254.53 172.18 257.7 175.47 260.35 177.33C262.39 178.86 264.24 178.92 266.65 178.58C267.63 178.43 268.44 178.21 269.22 177.71C272.2 175.51 274.88 170.13 276.52 166.45C277.09 165.22 277.07 163.59 278.18 162.69C279.15 162 280.38 162.16 281.51 162.07C285.45 161.7 287.81 160.49 289.74 165.07C291.8 171.19 296.6 178.84 303.86 175.53C305.97 174.68 307.93 173.21 309.25 171.43C310.47 169.59 312.92 167.67 311.25 165.48C309.48 163.16 307.53 160.93 306.24 158.3C305.71 157.24 305.21 156.17 305.09 155.04C304.73 152.1 303.22 139.78 302.49 133.85C302.28 132.12 302.11 130.76 302.02 130.01C301.96 129.49 302.05 129.09 302.6 128.7C303.52 128.06 304.75 127.62 305.79 127.11C308.08 125.94 310.64 124.51 312.79 123.23C317.1 120.54 324.39 115.66 325.94 111.92C326.71 109.77 324.17 106.56 322.89 104.84C320.12 101.63 319.57 102.42 317.03 105.02C312.31 109.05 303.24 117.71 297.08 115.23L297.05 115.2L297.03 115.22Z" fill="#29235C" stroke="#29235C" stroke-miterlimit="10"/>
<path d="M294.41 102.08C293.79 102.61 293.49 103.52 293.15 104.3C288.79 114.78 274.55 116.98 268.27 107.17C267.77 106.45 267.43 105.83 266.82 105.36C266.08 104.76 264.91 104.79 264.13 104.17C262.45 102.43 265.71 101.57 266.98 101.24C268.73 100.74 271.16 100.01 270.92 102.22C270.27 104.19 270.04 104.82 271.5 106.58C277.01 113.36 287.31 110.85 290.36 102.91C290.65 102.12 290.81 101.35 290.36 100.65C289.78 99.8101 287.66 98.5801 288.72 97.3501C289.49 96.6401 290.72 97.2001 291.62 97.4601C293.14 98.1401 298.07 98.0901 297.24 100.31C296.65 101.21 295.24 101.32 294.46 102.03L294.41 102.07V102.08Z" fill="#29235C" stroke="#29235C" stroke-miterlimit="10"/>
</g>
<defs>
<clipPath id="clip0_467_3648">
<rect width="329.58" height="201.25" fill="white"/>
</clipPath>
</defs>
</svg>
