<svg width="112" height="114" viewBox="0 0 112 114" fill="none" xmlns="http://www.w3.org/2000/svg">
<path d="M79.1863 34.8506C80.8877 36.2588 92.063 26.8428 93.9132 25.1289C95.4701 23.8115 96.325 21.6269 98.3362 20.9454C102.92 19.8428 107.992 27.2185 109.499 31.5177C111.919 37.0929 105.278 41.8546 100.397 45.749C95.8831 49.2677 90.7043 51.6507 85.8394 54.6036C84.2865 55.508 83.4647 57.1309 83.5804 58.9109C83.663 62.4419 84.394 65.911 84.9391 69.4296C86.3721 77.107 84.8483 83.3595 90.4318 90.2026C91.138 91.1401 91.9103 92.0569 92.7239 92.9035C93.8637 94.0888 95.1976 95.303 94.7929 97.0128C94.4336 98.5821 93.1161 99.7383 92.2654 101.027C91.1504 102.695 90.4029 104.364 88.7964 105.607C86.3598 107.548 83.5102 109.423 80.4541 110.026C76.4854 110.806 72.6239 109.984 69.7661 107.143C67.8168 105.33 66.1938 103.018 65.0044 100.668C64.2775 99.2594 63.6333 97.7849 63.0015 96.3395C62.5059 95.1377 61.9277 94.0516 60.3997 94.031C58.8055 94.0475 56.976 94.126 55.704 94.8983C54.8863 95.4517 54.4816 96.4305 54.0562 97.3391C50.6615 104.731 47.6881 112.227 39.1476 112.925C35.5959 113.309 32.8124 112.206 29.9298 109.914C26.1964 106.858 20.6129 101.75 22.2153 96.575C22.5911 95.5508 23.3303 94.7496 24.0241 93.9237C25.0318 92.7591 26.0271 91.4664 26.8737 90.2068C28.3811 87.9974 29.8719 85.6558 31.1439 83.1077C33.8283 77.6935 35.4142 71.4078 31.7716 66.6006C29.8224 64.4407 26.8076 63.1895 24.2471 61.806C21.4636 60.4225 19.3408 59.0596 16.896 57.3664C11.011 53.1581 3.39146 47.496 2.04513 41.8051C1.70649 39.4057 2.91236 37.3657 4.17195 35.2099C6.03038 32.2984 8.27702 29.4322 10.7921 27.1856C13.9762 24.2864 16.4128 24.9471 19.2129 27.7472C20.617 28.9531 29.0171 37.9273 30.1693 36.8122C30.351 36.3869 29.715 34.9621 29.1822 33.6033C26.8819 28.0487 26.4978 21.953 28.8436 16.4355C35.2654 1.64658 60.2551 -3.58162 73.0865 5.45858C81.342 11.4592 82.1514 23.2581 79.4505 32.6741C79.3018 33.2812 78.9178 34.3756 79.1615 34.8175L79.178 34.8463L79.1863 34.8506ZM74.1024 38.5632C73.359 37.8198 74.1107 36.3208 74.5567 35.4081C79.7438 26.6075 78.7527 13.4374 70.3319 7.62674C68.1885 6.10283 65.3595 5.11564 62.7247 4.67375C41.3817 1.13036 20.0966 18.4592 35.7693 38.2163C37.5121 40.7397 36.6408 42.9036 33.5764 42.2469C30.9333 41.549 27.7905 39.542 25.3332 37.857C24.0777 36.9815 23.0371 36.1556 21.9798 35.0901C20.3444 33.4754 18.2299 31.1048 16.4789 29.808C14.7072 28.3089 12.7786 29.5519 11.2671 31.1956C8.93785 33.6942 5.75374 37.9768 5.27055 40.8759C5.14253 41.9455 5.52655 42.6434 6.24514 43.5809C7.71123 45.3815 9.61926 47.5786 11.3538 49.2223C15.2771 52.7161 19.9067 55.7391 24.4825 58.2914C35.9098 64.0236 37.9623 66.0389 37.1611 79.0355C36.9174 80.5016 35.538 80.9972 34.8442 82.2113C33.4194 84.6727 32.1722 87.8238 30.6153 90.3224C29.4796 92.1725 28.1085 94.0722 26.6919 95.8315C25.7834 96.9424 24.8088 98.293 25.4117 99.7591C26.4483 102.427 29.9959 106.115 32.9694 108.196C35.2532 109.914 37.3263 109.98 40.0272 109.605C41.1298 109.435 42.0301 109.196 42.9057 108.63C46.2467 106.164 49.2491 100.135 51.091 96.0051C51.7353 94.6258 51.7022 92.7921 52.9536 91.7886C54.0438 91.0163 55.4232 91.1897 56.6911 91.0947C61.1059 90.6817 63.7489 89.3231 65.9171 94.4564C68.2215 101.312 73.6027 109.894 81.7467 106.189C84.1173 105.239 86.3103 103.583 87.7929 101.593C89.1557 99.5278 91.9062 97.3761 90.0395 94.9271C88.053 92.3212 85.8724 89.8227 84.4229 86.8782C83.8323 85.6846 83.2624 84.4869 83.1303 83.2232C82.7255 79.9235 81.0323 66.1093 80.2187 59.4727C79.9833 57.5316 79.7892 56.0117 79.6942 55.1692C79.6281 54.5828 79.7273 54.1326 80.3426 53.699C81.371 52.9804 82.7544 52.4932 83.9149 51.9192C86.4878 50.61 89.3498 49.0075 91.7574 47.5704C96.5935 44.5597 104.762 39.0837 106.497 34.8919C107.364 32.4759 104.515 28.8787 103.073 26.9583C99.9676 23.3612 99.3522 24.2409 96.5068 27.1648C91.2123 31.6828 81.0488 41.3922 74.1355 38.6087L74.0983 38.5714L74.1024 38.5632Z" fill="#29235C" stroke="#29235C" stroke-width="2" stroke-miterlimit="10"/>
<path d="M71.1665 23.8275C70.4686 24.4222 70.134 25.4465 69.7499 26.322C64.8602 38.0714 48.9025 40.5367 41.8611 29.5389C41.3077 28.7295 40.9154 28.0358 40.234 27.5113C39.4039 26.8423 38.0947 26.8752 37.2151 26.1814C35.336 24.228 38.9909 23.2659 40.4116 22.8983C42.3774 22.3367 45.0949 21.5189 44.8264 24.001C44.0954 26.2063 43.8434 26.9166 45.4706 28.8906C51.6447 36.4895 63.1918 33.6771 66.6154 24.7773C66.9375 23.8853 67.1151 23.0345 66.6154 22.2416C65.9629 21.3 63.584 19.9248 64.7776 18.5372C65.6407 17.7443 67.0242 18.3679 68.0319 18.657C69.7334 19.4169 75.2591 19.3589 74.334 21.8451C73.6691 22.861 72.0957 22.9808 71.2201 23.7737L71.1624 23.8233L71.1665 23.8275Z" fill="#29235C" stroke="#29235C" stroke-width="2" stroke-miterlimit="10"/>
</svg>
