<svg width="111" height="115" viewBox="0 0 111 115" fill="none" xmlns="http://www.w3.org/2000/svg">
<path d="M38.989 108.597C38.2129 110.428 36.4813 112.218 34.4493 112.648C31.3491 113.382 26.7636 113.245 23.5466 112.606C19.5452 111.88 15.3226 108.713 15.0013 104.47C14.8428 100.727 15.9651 96.9469 16.7036 93.2667C16.9498 91.7146 17.7759 89.2611 17.317 88.0177C17.0416 87.3 16.2071 87.0748 15.4602 86.9789C14.3879 86.8579 13.2572 86.8035 12.1849 86.6282C8.88025 86.0483 5.14585 85.4057 2.37114 83.2819C0.969179 82.0093 1.54079 80.9579 2.14163 79.0595C3.28073 75.8216 5.13747 71.5029 6.50188 68.19C9.17228 61.7393 10.4073 54.4291 14.5256 48.6919C15.6814 47.1147 17.2002 45.4248 18.4019 43.8517C20.509 41.4943 18.6564 39.9463 17.1877 37.9143C5.85935 23.6318 18.2308 3.03633 34.9083 1.19626C40.537 0.591243 46.7624 1.37998 51.9238 3.63313C64.0491 8.36892 68.5637 23.1563 62.4635 36.3789C62.0338 37.4721 61.6165 38.5277 62.3717 39.3789C63.0852 40.0048 64.0783 39.7669 64.9712 39.5291C67.1951 38.8615 70.0867 37.5931 72.3816 36.8212C79.4498 34.5764 87.2315 33.7961 94.6752 34.0506C98.2302 34.3886 103.187 33.8629 104.99 37.6474C105.632 38.9242 105.966 40.3928 106.25 41.7905C107.852 49.7266 107.981 57.9924 109.417 65.9452C109.834 68.4779 108.678 70.973 106.079 71.2317C102.023 72.0412 90.4234 74.3737 84.4066 75.5754C83.1799 75.8007 82.6166 75.9884 81.3774 76.8396C78.949 78.4877 76.483 80.4321 73.6457 81.1247C72.8154 81.4043 71.6304 81.3543 71.0588 81.9635C70.6332 82.6937 71.2424 85.1721 71.2758 86.3404C71.8015 91.6311 72.6444 98.04 72.8906 101.624C72.6194 105.88 68.8599 107.416 65.2382 108.388C62.7806 109.064 60.2395 109.418 57.7277 109.264C56.0837 109.227 54.54 108.438 53.8181 106.915C52.1324 103.272 50.8514 99.4004 49.8917 95.5074C49.5996 94.3391 49.3702 92.7369 47.9265 92.6201C46.2867 92.5074 44.4174 92.8704 42.7234 93.0457C41.601 93.1917 40.1448 93.4379 39.6024 94.4476C39.1935 95.1402 39.1059 96.1165 39.11 96.9468C39.0182 100.869 40.0822 105.162 39.0265 108.526L38.9974 108.592L38.989 108.597ZM58.725 42.0452C58.9086 41.5278 58.5038 40.8852 58.0866 40.0841C56.693 37.8267 58.7124 36.2536 59.8641 34.5054C62.3801 30.0742 62.0838 23.294 60.8863 17.924C59.9308 13.3884 56.8181 9.5455 52.6289 7.41752C44.1879 3.08229 31.8123 3.30764 24.1975 9.32856C16.0194 15.6249 12.794 27.8627 19.8539 36.1159C21.0764 37.9101 23.7761 40.3677 23.2211 42.5458C22.1279 45.2037 19.2739 47.6237 17.6008 49.977C11.7718 58.0216 10.2405 69.133 6.04296 78.2374C5.67161 79.0469 5.30859 80.1109 5.71332 80.8619C7.26966 83.282 13.7871 83.5114 16.5201 83.2986C17.9721 83.2026 18.3143 81.8132 18.4186 80.5865C18.6439 78.7798 18.8108 76.6268 19.7121 75.5587C20.4423 74.6658 21.5855 74.624 22.0444 75.2374C22.4283 75.7464 22.3949 76.4224 22.3574 77.0525C21.8859 81.7716 20.9805 87.6631 20.1168 92.449C19.42 96.2626 18.3309 102.133 18.1556 104.808C18.0931 105.651 18.3226 106.372 19.011 106.936C22.5076 109.527 27.0222 110.103 31.4117 109.715C34.1989 109.523 35.6385 108.138 35.7386 105.33C35.9514 102.083 35.6468 98.3281 35.9264 95.0193C36.0891 92.232 37.2407 90.4587 40.1448 90.1624C42.3521 89.8245 44.6135 89.645 46.875 89.2236C48.1184 89.0192 49.5663 88.4559 50.7346 89.0568C51.9237 89.7244 52.3201 91.168 52.729 92.3948C53.6303 95.303 54.7319 99.9261 55.8877 103.122C56.6095 105.15 57.202 106.047 58.9085 106.106C62.234 106.156 66.8572 104.453 69.8697 103.147C70.554 102.805 70.5832 102.275 70.4789 101.616C69.9615 97.9691 68.1589 85.2723 67.508 80.7118C67.3286 79.2931 67.2869 78.7046 66.1186 78.5878C63.9865 78.3667 60.8112 79.0009 58.4996 78.4668C54.8487 77.7324 47.5551 75.9676 47.1754 72.1581C47.4842 69.7881 51.1143 69.4835 53.1881 69.0579C54.4356 68.8576 55.6456 68.7033 56.4092 68.5322C57.1853 68.3403 57.5525 68.1983 57.5525 67.4848C57.0852 63.6628 55.1908 51.6043 54.6901 47.9366C54.6233 47.4318 54.5816 46.9853 54.7193 46.493C54.8487 45.9464 55.3744 45.1619 55.9126 44.6153C56.8431 43.5639 58.3369 43.0172 58.7208 42.0868L58.7374 42.0409L58.725 42.0452ZM62.5261 75.0288C76.0742 74.6699 89.3552 70.7895 102.678 68.4654C103.563 68.3069 104.656 68.0481 105.236 67.4431C105.97 66.7463 105.958 65.4904 105.82 64.5015C105.494 62.0773 105.052 59.6448 104.756 57.2164C104.476 51.7713 103.609 46.297 102.499 40.6557C102.073 38.2399 101.163 38.2314 98.8268 37.7849C96.1147 37.3635 92.1008 37.2508 89.2426 37.255C78.6361 37.255 68.2091 41.0687 58.9252 45.8754C57.9739 46.5055 57.711 47.1272 57.8696 48.1369C58.3244 51.2204 60.0894 63.1247 61.1075 69.9843C61.4121 71.9787 61.6164 73.5475 61.7666 74.3444C61.8543 74.7158 62.0755 74.9578 62.4802 75.0204L62.5219 75.0288H62.5261ZM73.3579 77.4654C73.3036 77.3862 73.1617 77.4071 72.9281 77.4029C72.4941 77.4154 71.8641 77.3737 71.693 77.4279C71.5387 77.5323 71.5929 77.7617 71.5804 77.9244C71.5887 78.058 71.5553 78.2667 71.6847 78.3042C71.935 78.2917 72.9031 77.9995 73.191 77.9244C73.3579 77.866 73.4372 77.6617 73.3746 77.5031L73.3537 77.4654H73.3579Z" fill="#29235C" stroke="#29235C" stroke-width="2" stroke-miterlimit="10"/>
<path d="M21.3978 26.3694C19.3324 24.4125 26.313 21.7755 27.6941 22.8103C28.8749 23.7199 27.3353 25.2761 27.3645 26.3109C27.3645 26.6113 27.4396 26.8826 27.5773 27.1705C29.1169 29.8033 32.7929 32.6699 35.722 33.5836C41.818 34.8521 49.5581 29.9285 51.7236 24.2998C52.4746 22.3304 50.9933 21.9174 50.1755 20.4737C49.9669 20.0022 50.0879 19.4847 50.4968 19.1384C51.5942 18.2705 53.3216 18.7629 55.0532 19.0675C56.2424 19.3512 59.0797 19.7893 58.3745 21.5209C58.0032 22.2594 56.8682 22.7519 56.1422 23.3736C54.8863 24.4585 54.515 25.8812 53.7055 27.4543C52.9002 29.1817 51.7361 31.001 50.2757 32.3278C42.3021 39.6631 29.7219 37.9772 24.5188 28.7435C23.8011 27.6753 22.2949 27.0453 21.4479 26.4069L21.4019 26.3694H21.3978Z" fill="#29235C" stroke="#29235C" stroke-width="2" stroke-miterlimit="10"/>
</svg>
