<svg width="104" height="105" viewBox="0 0 104 105" fill="none" xmlns="http://www.w3.org/2000/svg">
<path d="M96.7278 29.1657C95.8063 30.1973 93.7462 29.7817 92.538 29.8648C91.9851 29.9102 91.5265 30.0801 91.0555 30.3484C86.8453 32.9746 79.0801 40.6643 74.6569 44.254C70.2993 49.1021 76.9545 58.1595 80.4767 62.3765C80.9108 62.8942 81.3613 63.4346 81.6889 63.99C84.22 68.0635 76.2951 73.2514 72.3593 74.1583C71.4869 74.4455 69.6194 74.4947 69.5948 75.4015C69.6398 76.9508 70.0002 78.4547 70.3033 80.8882C70.6555 83.3519 71.0528 86.1482 71.3682 88.3549C71.5197 89.4092 71.6508 90.3312 71.749 91.0151C71.8842 91.9447 71.9498 92.4169 71.6713 93.2406C71.188 94.5518 70.291 96.4903 68.7675 97.2234C65.7286 98.6971 59.4133 99.9593 55.6986 99.7363C52.3812 99.4265 51.988 95.115 50.743 92.7949C50.0713 91.393 48.6666 91.9787 47.5075 92.519C46.0741 93.1803 44.5997 93.9436 43.072 94.4311C41.6673 94.9185 40.07 94.9525 39.255 95.678C38.4031 96.4072 38.3909 97.571 38.1247 98.561C37.8257 99.7853 37.1089 100.874 36.0031 101.611C31.7601 104.422 18.6749 103.232 16.3732 99.1732C15.4271 97.8167 14.6162 96.2334 14.6244 94.5934C14.5957 91.3324 16.7705 87.4594 15.3206 84.2362C14.4401 82.6265 13.2811 80.8881 11.95 79.7168C10.3855 78.6172 8.57122 78.5229 6.25724 77.9069C4.25861 77.4195 1.02315 76.4861 1.2566 74.3965C2.71461 70.4667 8.07977 57.468 10.7787 50.6627C11.561 48.5731 12.4088 47.1258 13.8586 45.1533C15.0381 43.5663 16.3978 42.0775 17.6879 40.5698C18.081 40.0937 18.4579 39.5193 18.5562 38.96C18.7446 38.072 18.2531 37.1538 17.52 36.2129C11.905 29.1468 10.4552 21.1775 15.4927 13.3217C22.0087 2.7225 35.0407 -0.304225 47.7655 2.8283C62.0139 5.83234 67.2522 20.7016 61.4283 32.8462C61.0474 33.6587 60.6707 34.6827 60.8468 35.4989C61.584 38.2649 65.2044 36.4396 66.7689 35.2758C70.9095 32.3965 75.8119 28.1039 79.0473 24.7107C79.9033 23.7547 80.919 22.7873 81.2876 21.6953C81.5702 20.8904 81.3367 20.0025 81.4596 19.1107C81.5742 17.4406 83.4377 17.123 84.8302 16.7225C85.6206 16.4693 86.063 15.8081 86.4398 15.1544C86.7306 14.6783 87.0623 14.1872 87.5456 13.866C88.25 13.3672 89.192 13.2954 90.0234 13.1102C90.5886 12.9893 91.0636 12.7285 91.4936 12.3733C93.1728 10.8203 94.8152 10.0495 96.9653 11.5912C98.0384 12.294 99.353 13.2499 100.348 13.9981C101.331 14.7538 102.392 15.6041 102.683 16.783C103.014 18.0186 102.126 19.0578 101.814 20.267C101.487 21.4233 101.798 22.7949 100.975 23.7962C100.086 24.9223 98.0711 24.9791 97.5756 26.3356C97.2684 27.2387 97.4691 28.3647 96.7688 29.1318L96.7278 29.177V29.1657ZM58.3648 39.2661C58.545 38.397 57.4229 37.7244 56.9437 36.9611C55.8133 35.5743 56.6038 34.0932 57.771 33.0125C61.8624 28.8257 60.8631 16.2275 57.2509 11.7763C50.5669 3.4065 33.3287 2.545 24.8305 8.41328C14.6285 15.3547 12.8757 26.9173 21.4272 35.6007C23.2374 37.6299 23.7042 38.8354 21.894 40.823C19.1991 44.0424 16.1029 47.1485 14.395 50.9082C12.6585 55.1026 7.8258 67.3039 5.29885 73.6257C4.9712 74.5514 6.29001 74.6874 7.39171 75.1257C8.60399 75.5073 9.84487 75.8097 11.1063 76.0062C13.5964 76.2744 17.3029 77.1284 18.1015 74.2982C19.8339 67.3946 19.6169 60.0791 21.4149 53.2208C21.8162 51.9625 22.4305 49.0982 24.2202 49.2645C24.8796 49.4118 25.2728 50.2771 25.752 50.7306C26.3786 51.3654 27.3492 51.1953 28.2257 51.1236C31.8421 50.6021 38.354 51.5543 40.2585 49.0528C42.0482 46.4191 44.0222 43.0449 47.8065 42.7577C49.4816 42.5914 51.3369 42.6782 53.1717 42.085C54.1546 41.7827 55.0515 41.3256 55.973 40.8759C56.8085 40.4452 57.988 40.0559 58.3566 39.3115L58.373 39.27L58.3648 39.2661ZM99.2507 16.9531C99.0213 16.0311 97.8172 15.4757 96.6459 14.701C95.8841 14.2363 94.8398 13.5749 94.0125 14.24C93.5947 14.5536 93.2793 15.0033 92.9189 15.3887C91.6697 16.8057 89.1633 17.9846 87.4022 19.1371C85.5387 20.1082 85.2848 21.3213 84.5763 23.0217C82.205 26.8722 77.0774 30.9832 72.8876 34.5201C68.2965 38.3101 62.0958 41.5635 56.3539 44.133C54.2528 45.0966 51.9348 45.1608 49.6167 45.2969C46.8113 45.4216 44.9765 47.2014 43.6537 49.3401C42.6339 50.8327 41.4789 52.3895 39.6277 52.9714C35.5486 54.0747 29.049 53.5571 25.5145 54.4904C24.4292 54.7814 24.253 55.0573 24.1179 55.9037C23.5977 59.0854 21.4803 72.0839 20.825 76.1006C20.7226 78.0504 19.4859 78.315 17.647 78.9309C16.9835 79.1614 16.4305 79.4334 16.2421 79.8339C15.9473 80.6236 16.6026 81.3454 17.0326 82.0369C22.3241 89.855 30.8223 94.7031 40.3976 92.3377C60.8262 87.7504 53.9621 66.0645 64.0085 57.3886C65.0733 56.5384 66.4535 56.0283 67.8337 55.5938C69.7094 55.0836 70.7907 54.1843 70.6064 52.1854C70.5531 50.7155 70.1395 49.1248 70.0453 47.6548C69.7464 44.6055 71.9989 42.187 74.2965 40.1503C78.3797 36.5265 83.024 32.2454 87.6848 28.6594C88.6104 27.9755 89.2248 27.4766 90.1381 27.0345C91.2398 26.5319 92.5012 26.3544 93.3121 25.474C94.2746 24.3139 95.3517 23.203 96.5845 22.2696C97.4323 21.4912 97.6001 20.573 98.153 19.5225C98.5093 18.6912 99.3407 17.9204 99.2547 17.0022L99.2466 16.9531H99.2507ZM72.7852 57.1355C72.3757 56.8861 71.7491 57.0108 70.8521 57.332C69.5129 57.8799 67.7641 58.3182 66.7197 58.9946C66.3798 59.2969 66.5109 59.7315 66.5723 60.132C66.9778 62.165 68.0508 67.557 68.4767 69.6618C68.6774 71.4037 70.3402 71.6381 72.134 71.1393C74.3661 70.4364 77.3313 68.7852 78.4002 66.7674C78.8098 65.596 77.8801 64.4963 77.0119 63.238C75.861 61.6661 74.5668 60.1017 73.7067 58.4051C73.4733 57.9705 73.2071 57.3962 72.8262 57.1582L72.7852 57.1318V57.1355ZM68.5136 93.9624C68.8617 93.4183 68.7757 92.587 68.6324 91.9144C68.2884 90.3198 68.0057 88.7024 67.7846 87.0927C66.8713 80.5556 66.5273 73.6672 65.3314 67.2207C62.8003 54.5131 59.8434 78.3943 57.984 80.5633C56.8086 83.1403 55.0229 85.4869 53.5649 87.9129C52.5901 89.4357 52.7621 90.3878 53.5526 92.058C54.1055 93.2482 54.7976 95.0016 55.4038 96.0785C56.0672 97.3444 57.431 97.2952 58.7252 97.144C61.4897 96.8493 64.1518 95.9462 66.7689 95.1036C67.4242 94.8844 68.1696 94.5331 68.4849 94.0154L68.5136 93.9663V93.9624ZM19.4162 88.8952C18.9452 88.8763 18.6708 90.2443 18.5234 91.0378C18.2326 93.0292 17.3766 95.353 18.3923 97.1819C19.9281 100.416 36.4618 102.661 35.184 96.8418C34.7007 95.7876 33.3984 95.6138 32.1206 95.3606C31.0311 95.149 29.9868 94.8731 28.9834 94.5292C25.8831 93.4712 23.2169 91.7708 20.8005 89.6548C20.4073 89.3487 19.9486 88.88 19.449 88.8876H19.4121L19.4162 88.8952Z" fill="#29235C" stroke="#29235C" stroke-width="2" stroke-miterlimit="10"/>
<path d="M57.1028 19.0199C57.8892 20.3878 55.1042 21.6348 54.3957 22.8667C53.4046 24.261 52.7124 25.9538 51.6107 27.3406C46.1636 34.3311 35.5357 36.5191 28.2415 31.0287C26.3166 29.7515 25.0757 27.6505 23.5726 26.0219C22.8805 25.3418 21.7746 25.0054 21.1562 24.4121C19.8415 23.2029 21.963 22.1979 23.0934 21.8654C24.6825 21.4006 26.7713 20.5918 27.5781 21.7368C28.0696 22.6474 26.7794 23.8 26.9269 24.8127C27.4347 26.5698 29.6299 28.0623 31.1166 29.1657C37.5384 33.8626 47.8346 29.3093 50.554 22.8667C51.9138 20.3803 47.7773 19.3299 49.5425 17.9544C51.1029 17.1231 53.1875 17.8184 55.1451 18.0943C55.8414 18.2265 56.6728 18.4607 57.0782 18.9746L57.1069 19.0163L57.1028 19.0199Z" fill="#29235C" stroke="#29235C" stroke-width="2" stroke-miterlimit="10"/>
<path d="M36.1788 59.0325C38.9924 58.5904 42.1705 58.8739 44.3821 60.612C46.6715 62.5996 48.2156 65.8795 47.4865 68.7438C45.832 77.2193 33.9999 82.0711 28.004 74.9634C26.1119 72.8058 25.5835 70.0058 26.3576 67.391C27.5166 63.2987 31.5712 59.7428 36.1009 59.0437L36.1788 59.0325ZM37.1781 61.908C32.6075 62.6637 27.1153 67.9614 29.8921 72.2691C32.1078 75.7266 37.6859 75.8702 40.9419 73.6219C46.2169 69.7752 45.6354 60.7064 37.26 61.8929L37.174 61.9043L37.1781 61.908Z" fill="#29235C" stroke="#29235C" stroke-width="2" stroke-miterlimit="10"/>
</svg>
