<svg width="95" height="112" viewBox="0 0 95 112" fill="none" xmlns="http://www.w3.org/2000/svg">
<path d="M37.2446 107.472C36.0256 109.618 32.9575 110.4 30.7254 110.845C28.308 111.265 25.9441 110.746 23.5226 110.293C19.7997 109.449 15.5662 108.93 15.0926 104.643C14.7096 98.9887 16.5216 91.8971 16.8387 86.5063C16.847 85.2956 15.1667 85.4644 13.8324 85.2544C8.64344 84.7107 3.24443 81.964 1.46947 76.9274C1.03294 75.416 1.50249 74.094 2.05845 72.6568C2.55264 71.3966 3.13741 69.9553 3.5863 68.6045C5.70307 62.213 7.28857 54.2812 10.8797 48.9234C11.6663 47.758 12.5764 46.7326 13.573 45.703C14.6685 44.4758 16.324 43.1619 16.7729 41.6011C17.1106 40.4809 16.3898 39.2743 15.6897 38.3312C10.5749 31.3467 9.43824 21.5248 13.8118 13.8772C22.0236 0.237651 49.5005 -4.02067 59.8043 8.25167C65.1786 14.7749 65.3556 24.1316 63.3418 31.9975C63.0782 33.2494 62.2958 34.9584 63.6713 34.8637C66.101 34.1719 68.1231 32.5452 70.1657 31.1286C73.7198 28.4146 77.4715 25.5565 80.1895 22.056C81.5815 20.4458 84.1307 20.5529 85.8356 21.6319C89.3073 23.9505 93.5531 29.7161 93.7014 33.9496C93.409 37.3883 90.2915 40.2997 87.7588 42.6224C83.6529 46.1394 80.3377 48.3468 76.2113 50.7189C74.0245 51.9544 71.6977 53.0869 69.5068 54.3389C68.7119 54.8042 67.9542 55.455 67.6042 56.2828C67.3324 56.8923 67.2459 57.6087 67.2541 58.3624C67.3818 62.2047 68.1807 66.0182 68.7161 69.8317C69.7662 78.8918 71.5495 89.4386 71.2035 99.0876C71.0841 100.743 71.0758 102.25 70.1369 103.572C68.123 106.023 65.5451 106.661 62.3534 107.448C61.0068 107.773 59.5571 108.09 58.2146 108.345C56.9338 108.592 55.8054 108.745 54.7182 108.222C51.5884 106.488 50.3653 99.1783 49.0557 95.5007C48.8292 94.78 48.5533 93.7627 47.9726 93.4786C47.4825 93.1944 46.6506 93.248 45.4398 93.3468C43.2283 93.5939 40.1397 93.6186 38.0518 94.051C37.5411 94.2446 37.5493 94.7757 37.5246 95.2658C37.5081 97.3332 37.5246 102.955 37.5164 105.479C37.504 106.15 37.5164 106.822 37.2611 107.419L37.2405 107.464L37.2446 107.472ZM55.7973 104.606C56.2626 105.137 57.0286 105.104 57.7039 105.01C59.8784 104.692 63.7289 103.77 65.7098 103.025C67.1223 102.547 67.6784 101.777 67.7525 100.113C68.0161 96.5672 67.9418 92.445 67.6659 88.8333C66.7187 78.0106 65.2979 66.5412 63.5518 55.7555C63.2388 53.6099 65.055 52.7122 66.7929 52.1563C68.2631 51.6291 69.6798 50.8177 71.1171 50.0435C73.7857 48.6021 76.3184 47.095 78.917 45.3447C83.7518 41.9678 89.6203 37.9359 90.5057 34.316C90.6293 32.3639 89.4843 30.8238 88.4548 29.0035C87.4581 27.4303 85.9633 25.3012 84.4272 24.6094C83.2288 24.1399 82.158 25.1241 81.2767 25.8818C74.8111 31.355 68.0778 39.4885 59.4336 38.8378C58.7417 38.7513 57.9799 38.5579 57.6175 38.0513C57.1109 37.4501 57.8398 36.0703 58.3875 35.1066C63.5765 26.3636 62.4234 13.1278 54.1705 7.60115C45.2257 1.91799 32.2533 3.8082 23.7491 8.87362C14.3307 14.1985 10.8797 25.8572 17.8683 35.8563C19.0626 37.7424 21.3646 39.5379 20.6069 41.8317C19.948 43.7303 17.9259 45.6412 16.4886 47.132C9.16643 54.0094 8.81234 65.3469 4.93297 74.3205C3.63572 79.1965 11.971 82.9646 15.9163 81.8815C17.6747 80.9096 17.2753 77.0839 18.3131 75.4325C18.7867 74.4812 19.8656 74.4236 20.5204 75.4325C23.0572 80.0944 15.7186 101.682 18.8485 105.302C19.5692 106.15 20.7963 106.472 22.3613 106.842C24.4451 107.312 27.0602 107.616 29.2552 107.522C33.6534 107.336 34.8066 105.969 34.333 101.353C34.2383 98.437 32.4468 90.9953 36.7998 90.6288C37.9529 90.5217 39.1967 90.6659 40.3621 90.6865C43.0266 90.8265 45.5264 90.1633 48.0797 89.595C51.539 88.9072 51.6955 93.2685 52.4903 95.5747C53.1986 97.815 54.1046 100.002 54.8088 102.25C55.0724 103.029 55.2783 103.951 55.7684 104.565L55.8014 104.602L55.7973 104.606Z" fill="#29235C" stroke="#29235C" stroke-width="2" stroke-miterlimit="10"/>
<path d="M54.191 23.0656C50.1963 36.9275 36.219 41.4082 26.0923 29.7824C25.4087 28.9999 24.9145 27.4555 24.3297 27.0231C23.749 26.5948 22.6124 27.2373 21.5005 26.7885C20.4257 26.356 20.3186 24.3628 21.2822 23.9387C21.7352 23.741 26.6689 22.2749 27.126 22.2214C27.9908 22.1143 28.6539 22.312 29.4281 22.6332C30.0335 25.7878 26.2818 24.2968 28.3738 27.5049C34.9753 37.6317 48.9856 33.221 51.0117 22.1595C49.7804 21.8506 47.5565 21.0354 47.4083 19.6557C47.0788 16.5712 51.0406 18.9144 52.3625 19.2274C54.1581 19.6516 58.021 19.6227 58.2186 21.4882C58.4575 23.7368 55.5747 23.1726 54.1951 23.0656H54.191Z" fill="#29235C" stroke="#29235C" stroke-width="2" stroke-miterlimit="10"/>
</svg>
