<svg width="1595" height="1049" viewBox="0 0 1595 1049" fill="none" xmlns="http://www.w3.org/2000/svg">
<path d="M60.2002 713.57C83.0802 686.031 106.46 658.69 134.87 636.63C132.51 638.45 130.15 640.281 127.79 642.101C145.88 628.221 165.53 616.541 186.52 607.601C183.73 608.781 180.95 609.95 178.16 611.13C196.6 603.42 215.84 597.94 235.65 595.22L226.35 596.47C243.07 594.31 259.9 594.18 276.62 596.3C273.52 595.88 270.42 595.47 267.32 595.05C284.44 597.37 300.93 602.09 316.84 608.77C314.05 607.59 311.27 606.42 308.48 605.24C328.51 613.82 347.11 625.18 364.35 638.46C361.99 636.64 359.63 634.81 357.27 632.99C382.27 652.46 404.07 675.601 423.49 700.581C421.67 698.221 419.84 695.86 418.02 693.5C435.47 716.12 450.82 740.1 464.32 765.27C477.97 790.73 490.09 816.97 502.69 842.96C528.45 896.13 557.55 950.25 601.81 990.53C646.42 1031.13 706.43 1052.84 766.82 1047.75C826.27 1042.75 881.3 1017.5 925.24 977.351C963.49 942.401 989.91 897.42 1009.16 849.81C1028.23 802.63 1038.03 752.59 1044.25 702.27C1049.96 656.02 1051.46 609.31 1050.36 562.75C1048.78 495.64 1042.32 427.39 1026.64 362.03C1012.07 301.25 989.08 239.65 946.22 192.94C925.67 170.55 900.26 153.07 871.58 142.93C842.79 132.76 808.6 132.31 779.64 142.07C716.76 163.26 673.36 221.421 660.72 285.371C647.97 349.871 661.21 417.48 694.07 474.16C719.65 518.3 756.61 555.04 798.7 583.47C838.16 610.12 883.53 629.01 929.67 640.44C976.97 652.16 1026.58 656.88 1075.24 654.091C1123.38 651.331 1171.67 642.29 1216.75 624.97C1239.84 616.1 1262.45 605.76 1283.64 592.96C1307.14 578.77 1329.17 561.691 1349.58 543.371C1389.94 507.151 1423.72 463.37 1451.47 416.9C1479.72 369.6 1501.91 318.8 1521.3 267.31C1539.96 217.75 1555.62 167.13 1570.9 116.44C1578.15 92.3704 1585.32 68.2804 1592.71 44.2604C1598.09 26.7604 1586.32 5.32038 1568.26 1.21038C1549.3 -3.10962 1530.97 6.92033 1525.21 25.6603C1503.92 94.8803 1484.37 164.68 1459.67 232.8C1452.65 252.18 1445.2 271.4 1437.21 290.4C1438.39 287.61 1439.56 284.83 1440.74 282.04C1417.46 337.19 1389.32 390.54 1352.72 438.081C1354.54 435.721 1356.37 433.36 1358.19 431C1334.24 461.93 1306.84 490.02 1275.93 514.03C1278.29 512.21 1280.65 510.38 1283.01 508.56C1257.83 527.98 1230.58 543.99 1201.29 556.38C1204.08 555.2 1206.86 554.031 1209.65 552.851C1175.12 567.32 1138.7 576.84 1101.63 581.92C1104.73 581.5 1107.83 581.09 1110.93 580.67C1069.74 586.2 1027.91 586.24 986.71 580.77C989.81 581.19 992.91 581.6 996.01 582.02C958.6 576.95 921.85 567.32 887.03 552.65C889.82 553.83 892.6 555 895.39 556.18C867.48 544.31 841.01 529.23 816.96 510.72C819.32 512.54 821.68 514.37 824.04 516.19C803.46 500.23 784.88 481.87 768.93 461.28C770.75 463.64 772.58 466.001 774.4 468.361C760.62 450.411 749.08 431 740.22 410.17C741.4 412.96 742.57 415.74 743.75 418.53C735.26 398.23 729.35 376.99 726.37 355.19C726.79 358.29 727.2 361.39 727.62 364.49C725.15 345.46 724.95 326.27 727.39 307.23C726.97 310.33 726.56 313.43 726.14 316.53C728.44 299.61 732.81 283.131 739.39 267.371C738.21 270.161 737.04 272.94 735.86 275.73C741.3 263.01 747.96 250.99 756.33 239.95C754.51 242.31 752.68 244.67 750.86 247.03C758.58 237.06 767.4 228.1 777.33 220.32C774.97 222.14 772.61 223.97 770.25 225.79C778.94 219.13 788.29 213.52 798.35 209.17C795.56 210.35 792.78 211.52 789.99 212.7C799.08 208.9 808.49 206.24 818.26 204.9C815.16 205.32 812.06 205.73 808.96 206.15C819.1 204.91 829.24 204.831 839.38 206.121L830.08 204.871C840.19 206.291 849.96 209 859.4 212.9C856.61 211.72 853.83 210.551 851.04 209.371C862.13 214.101 872.41 220.31 881.97 227.65C879.61 225.83 877.25 224 874.89 222.18C887.31 231.89 898.22 243.26 907.9 255.68C906.08 253.32 904.25 250.961 902.43 248.601C916.42 266.771 927.48 286.79 936.42 307.88C935.24 305.09 934.07 302.31 932.89 299.52C953.34 348.29 965.24 400.061 972.33 452.351C971.91 449.251 971.5 446.15 971.08 443.05C980.51 513.75 983.33 585.921 978.53 657.121C977.33 674.881 975.59 692.6 973.23 710.25C973.65 707.15 974.06 704.05 974.48 700.95C968.16 747.55 957.48 793.81 939.17 837.24C940.35 834.45 941.52 831.67 942.7 828.88C931.79 854.54 918.19 879.01 901.21 901.17C903.03 898.81 904.86 896.451 906.68 894.091C893.11 911.641 877.53 927.501 859.99 941.101C862.35 939.281 864.71 937.45 867.07 935.63C851.04 947.92 833.68 958.13 815.09 966.03C817.88 964.85 820.66 963.68 823.45 962.5C805.55 969.97 786.86 975.24 767.63 977.89C770.73 977.47 773.83 977.06 776.93 976.64C759.77 978.89 742.47 979.021 725.3 976.82C728.4 977.24 731.5 977.651 734.6 978.07C718.52 975.88 702.86 971.68 687.88 965.43C690.67 966.61 693.45 967.78 696.24 968.96C681.81 962.81 668.31 954.87 655.86 945.32C658.22 947.141 660.58 948.97 662.94 950.79C646.14 937.69 631.6 921.79 618.55 905.01C620.37 907.37 622.2 909.731 624.02 912.091C592.4 871.01 570.83 823.561 548.46 777.121C537.16 753.661 525.62 730.271 512.34 707.851C498.14 683.891 481.67 661.24 463.94 639.77C427.72 595.89 382.8 559.661 329.55 538.871C276.94 518.321 216.04 521.01 163.94 541.82C132.33 554.44 104.18 571.36 77.9399 593.07C52.7299 613.93 31.55 638.98 10.71 664.06C4.62996 671.38 0.459961 678.97 0.459961 688.81C0.459961 697.391 4.26996 707.651 10.71 713.56C17.38 719.68 26.14 724.23 35.46 723.81C44.24 723.42 54.36 720.6 60.21 713.56L60.2002 713.57Z" fill="#4D63FF"/>
</svg>
